<svg width="24" height="24" viewBox="0 0 24 24" fill="none" xmlns="http://www.w3.org/2000/svg">
<path d="M9 11.25C11.0711 11.25 12.75 12.9289 12.75 15V19C12.75 21.0711 11.0711 22.75 9 22.75H5C2.92893 22.75 1.25 21.0711 1.25 19V15C1.25 12.9289 2.92893 11.25 5 11.25H9ZM5 12.75C3.75736 12.75 2.75 13.7574 2.75 15V19C2.75 20.2426 3.75736 21.25 5 21.25H9C10.2426 21.25 11.25 20.2426 11.25 19V15C11.25 13.7574 10.2426 12.75 9 12.75H5ZM19 2.25C20.5188 2.25 21.75 3.48122 21.75 5V18C21.75 19.5188 20.5188 20.75 19 20.75H15C14.5858 20.75 14.25 20.4142 14.25 20C14.25 19.5858 14.5858 19.25 15 19.25H19C19.6904 19.25 20.25 18.6904 20.25 18V5C20.25 4.30964 19.6904 3.75 19 3.75H7C6.30964 3.75 5.75 4.30964 5.75 5V9C5.75 9.41421 5.41421 9.75 5 9.75C4.58579 9.75 4.25 9.41421 4.25 9V5C4.25 3.48122 5.48122 2.25 7 2.25H19ZM8.03711 15.6865C8.32992 15.3936 8.80468 15.3937 9.09766 15.6865C9.39057 15.9793 9.39045 16.4541 9.09766 16.7471L7.09961 18.7471C6.80687 19.04 6.33206 19.0397 6.03906 18.7471L4.83789 17.5469C4.54489 17.2541 4.54416 16.7793 4.83691 16.4863C5.12966 16.1933 5.60444 16.1936 5.89746 16.4863L6.56836 17.1562L8.03711 15.6865ZM17 15.25C17.4142 15.25 17.75 15.5858 17.75 16C17.75 16.4142 17.4142 16.75 17 16.75H15C14.5858 16.75 14.25 16.4142 14.25 16C14.25 15.5858 14.5858 15.25 15 15.25H17ZM17 12.25C17.4142 12.25 17.75 12.5858 17.75 13C17.75 13.4142 17.4142 13.75 17 13.75H15C14.5858 13.75 14.25 13.4142 14.25 13C14.25 12.5858 14.5858 12.25 15 12.25H17ZM17 6.25C17.0454 6.25 17.0897 6.25497 17.1328 6.2627C17.1373 6.26351 17.142 6.26375 17.1465 6.26465C17.1662 6.26856 17.1849 6.27582 17.2041 6.28125C17.2316 6.28904 17.2595 6.29566 17.2861 6.30664C17.3097 6.31637 17.3312 6.32981 17.3535 6.3418C17.4164 6.37563 17.4772 6.41664 17.5303 6.46973C17.5787 6.51812 17.616 6.5732 17.6484 6.62988C17.664 6.65703 17.6803 6.68375 17.6924 6.71289C17.7131 6.76288 17.7279 6.8146 17.7373 6.86719C17.745 6.91035 17.75 6.95462 17.75 7V9C17.75 9.41421 17.4142 9.75 17 9.75C16.5858 9.75 16.25 9.41421 16.25 9V8.81055L14.5322 10.5303C14.4873 10.5753 14.436 10.6104 14.3838 10.6416C14.364 10.6534 14.3439 10.664 14.3232 10.6738C14.2976 10.6861 14.2718 10.6969 14.2451 10.7061C14.2274 10.7122 14.2095 10.7169 14.1914 10.7217C14.1638 10.7289 14.1365 10.7352 14.1084 10.7393C14.087 10.7424 14.0656 10.7438 14.0439 10.7451C14.0204 10.7464 13.9972 10.7479 13.9736 10.7471C13.9468 10.7461 13.9203 10.7431 13.8936 10.7393C13.8722 10.7362 13.8511 10.7325 13.8301 10.7275C13.805 10.7217 13.7804 10.7146 13.7559 10.7061C13.734 10.6985 13.7126 10.6903 13.6914 10.6807C13.6359 10.6554 13.5811 10.6258 13.5312 10.5859L11.5547 9.00488L10.5303 10.0303C10.2374 10.3232 9.76262 10.3232 9.46973 10.0303C9.17683 9.73738 9.17683 9.26262 9.46973 8.96973L10.957 7.48145C10.9776 7.45989 10.999 7.43951 11.0215 7.4209C11.0512 7.39631 11.0839 7.37673 11.1162 7.35742C11.136 7.34562 11.1561 7.33505 11.1768 7.3252C11.2012 7.31351 11.2257 7.30284 11.251 7.29395C11.2712 7.28684 11.2918 7.28171 11.3125 7.27637C11.3381 7.26976 11.3636 7.26363 11.3896 7.25977C11.4107 7.25663 11.4319 7.25525 11.4531 7.25391C11.4802 7.25222 11.5071 7.2517 11.5342 7.25293C11.5551 7.25387 11.5758 7.25609 11.5967 7.25879C11.6233 7.26224 11.6496 7.26617 11.6758 7.27246C11.6966 7.27747 11.7168 7.28417 11.7373 7.29102C11.7632 7.29967 11.7885 7.30973 11.8135 7.32129C11.8673 7.3462 11.9203 7.37535 11.9688 7.41406L13.9443 8.99512L15.1895 7.75H15C14.5858 7.75 14.25 7.41421 14.25 7C14.25 6.58579 14.5858 6.25 15 6.25H17Z" fill="white" fill-opacity="0.9"/>
</svg>
