<svg width="32" height="32" viewBox="0 0 32 32" fill="none" xmlns="http://www.w3.org/2000/svg">
<path fill-rule="evenodd" clip-rule="evenodd" d="M21.8478 4.8574C22.3214 4.57325 22.4749 3.95899 22.1908 3.48541C21.9066 3.01183 21.2924 2.85827 20.8188 3.14241L15.1509 6.54315C14.3355 7.0324 13.6765 7.74403 13.2513 8.59456L14.1366 9.03722L13.2513 8.59457L12.8611 9.37481C12.514 10.0691 12.3333 10.8346 12.3333 11.6109V12.3333H8.66663C5.9052 12.3333 3.66663 14.5718 3.66663 17.3333V19.3333C3.66663 19.8855 4.11434 20.3333 4.66663 20.3333C5.21891 20.3333 5.66663 19.8855 5.66663 19.3333V17.3333C5.66663 15.6764 7.00977 14.3333 8.66663 14.3333H18.9193L16.3733 16.8803L16.3733 16.8804C15.1262 18.1279 15.1264 20.1501 16.3737 21.3974C17.4505 22.4742 19.1377 22.6411 20.4047 21.7962L23 20.0655V24C23 25.6568 21.6568 27 20 27H12.6666C12.1143 27 11.6666 27.4477 11.6666 28C11.6666 28.5522 12.1143 29 12.6666 29H20C22.7614 29 25 26.7614 25 24V18.7318L26.4339 17.7755C27.5271 17.0465 28.3665 15.9956 28.8357 14.7683L30.2675 11.0237C30.4647 10.5078 30.2064 9.92972 29.6906 9.73248C29.1747 9.53524 28.5966 9.79353 28.3994 10.3094L26.9676 14.054C26.6465 14.8937 26.0722 15.6128 25.3243 16.1116L23.4579 17.3562L23.451 17.3607L23.4339 17.3722L19.2951 20.1323C18.8214 20.4482 18.1905 20.3857 17.7879 19.9831C17.3216 19.5168 17.3215 18.7607 17.7878 18.2943L20.7073 15.3735C20.8948 15.186 21.0001 14.9317 21.0001 14.6665V11.9999C21.0001 11.4476 20.5524 10.9999 20.0001 10.9999C19.4478 10.9999 19.0001 11.4476 19.0001 11.9999V12.3333H14.3333V11.6109C14.3333 11.1451 14.4417 10.6858 14.65 10.2692L15.0401 9.48898C15.2953 8.97866 15.6907 8.55168 16.1799 8.25813L21.8478 4.8574ZM4.33329 27.9999C4.33329 27.4476 4.78101 26.9999 5.33329 26.9999H7.99996C8.55224 26.9999 8.99996 27.4476 8.99996 27.9999C8.99996 28.5522 8.55224 28.9999 7.99996 28.9999H5.33329C4.78101 28.9999 4.33329 28.5522 4.33329 27.9999ZM2.66663 22.9999C2.11434 22.9999 1.66663 23.4476 1.66663 23.9999C1.66663 24.5522 2.11434 24.9999 2.66663 24.9999H7.99996C8.55224 24.9999 8.99996 24.5522 8.99996 23.9999C8.99996 23.4476 8.55224 22.9999 7.99996 22.9999H2.66663Z" fill="#343844"/>
</svg>
