<svg width="149" height="36" viewBox="0 0 149 36" fill="none" xmlns="http://www.w3.org/2000/svg">
<path fill-rule="evenodd" clip-rule="evenodd" d="M35.122 17.5609C35.122 27.2596 27.2597 35.1219 17.561 35.1219C7.8623 35.1219 0 27.2596 0 17.5609C0 7.86232 7.8623 0 17.561 0C27.2597 0 35.122 7.86232 35.122 17.5609ZM21.5473 7.27138C22.3868 6.67328 23.3061 7.23341 23.0394 8.18064L20.3989 17.5609H25.0788C26.061 17.5609 26.2043 18.8533 25.2939 19.5019L13.5746 27.8505C12.7351 28.4487 11.8159 27.8886 12.0826 26.9413L14.243 19.2662L19.1437 17.5371H13.1292V17.5609H10.0432C9.06086 17.5609 8.91765 16.2687 9.8281 15.6201L21.5473 7.27138ZM55.4295 24.5853H44.9351V9.51794H48.665V21.4243H55.4295V24.5853ZM59.3711 19.2117C59.3711 21.1715 60.1509 22.478 61.6471 22.478C63.1432 22.478 63.944 21.1715 63.944 19.2117C63.944 17.2519 63.1432 15.9243 61.6471 15.9243C60.1509 15.9243 59.3711 17.2519 59.3711 19.2117ZM67.4211 19.2117C67.4211 22.457 65.1452 24.9225 61.6681 24.9225C58.2121 24.9225 55.8941 22.457 55.8941 19.2117C55.8941 15.9664 58.2121 13.5009 61.6681 13.5009C65.1452 13.5009 67.4211 15.9664 67.4211 19.2117ZM73.4397 28.3153C75.0412 28.3153 76.4531 27.957 77.4014 27.1141C78.2654 26.3344 78.8344 25.1543 78.8344 23.5316V13.7958H75.547V14.9549H75.5048C74.8726 14.0487 73.9033 13.4797 72.4703 13.4797C69.794 13.4797 67.9396 15.7135 67.9396 18.8745C67.9396 22.183 70.1944 23.9952 72.6178 23.9952C73.9244 23.9952 74.7462 23.4684 75.3784 22.7519H75.4627V23.8267C75.4627 25.1332 74.8516 25.8918 73.3975 25.8918C72.2596 25.8918 71.6906 25.4072 71.5009 24.8382H68.1714C68.5086 27.093 70.4684 28.3153 73.4397 28.3153ZM73.4186 21.4454C72.1331 21.4454 71.2902 20.3917 71.2902 18.7691C71.2902 17.1254 72.1331 16.0717 73.4186 16.0717C74.8516 16.0717 75.6102 17.294 75.6102 18.748C75.6102 20.2653 74.9148 21.4454 73.4186 21.4454ZM83.318 19.2117C83.318 21.1715 84.0977 22.478 85.5939 22.478C87.0901 22.478 87.8909 21.1715 87.8909 19.2117C87.8909 17.2519 87.0901 15.9243 85.5939 15.9243C84.0977 15.9243 83.318 17.2519 83.318 19.2117ZM91.3679 19.2117C91.3679 22.457 89.092 24.9225 85.615 24.9225C82.159 24.9225 79.8409 22.457 79.8409 19.2117C79.8409 15.9664 82.159 13.5009 85.615 13.5009C89.092 13.5009 91.3679 15.9664 91.3679 19.2117ZM92.3707 24.5853H95.8056V13.7958H92.3707V24.5853ZM92.3707 12.2996H95.8056V9.51794H92.3707V12.2996ZM100.731 28.1467H97.2965V13.7958H100.584V15.1024H100.647C101.385 14.133 102.438 13.4797 103.914 13.4797C106.779 13.4797 108.529 15.9453 108.529 19.1906C108.529 22.6887 106.653 24.9225 103.829 24.9225C102.438 24.9225 101.448 24.3746 100.774 23.4684H100.731V28.1467ZM100.626 19.317C100.626 21.0661 101.469 22.2672 102.944 22.2672C104.251 22.2672 105.051 21.1504 105.051 19.317C105.051 17.4626 104.356 16.2403 102.881 16.2403C101.385 16.2403 100.626 17.5679 100.626 19.317ZM114.121 24.9225C116.945 24.9225 119.031 23.7002 119.031 21.34C119.031 18.5794 116.797 18.0948 114.901 17.7787C114.732 17.7476 114.566 17.7187 114.404 17.6906L114.402 17.6903L114.402 17.6903L114.402 17.6902C113.248 17.4898 112.309 17.3268 112.309 16.6618C112.309 15.9874 112.962 15.6713 113.805 15.6713C114.753 15.6713 115.406 15.9664 115.533 16.9357H118.694C118.525 14.8073 116.881 13.4797 113.826 13.4797C111.276 13.4797 109.169 14.6598 109.169 16.9357C109.169 19.4645 111.171 19.9703 113.046 20.2864C113.196 20.3128 113.344 20.3376 113.49 20.362C114.738 20.5707 115.786 20.7459 115.786 21.614C115.786 22.3094 115.132 22.6887 114.1 22.6887C112.962 22.6887 112.245 22.1619 112.119 21.0872H108.874C108.979 23.4684 110.96 24.9225 114.121 24.9225ZM126.921 23.2578C126.141 24.3114 125.193 24.9015 123.697 24.9015C121.21 24.9015 119.904 23.2788 119.904 20.8765V13.7959H123.318V20.16C123.318 21.3401 123.844 21.9934 124.94 21.9934C126.12 21.9934 126.837 21.1083 126.837 19.8228V13.7959H130.272V24.5854H126.984V23.2578H126.921ZM131.765 24.5853H135.2V18.5373C135.2 17.2518 135.832 16.3457 136.907 16.3457C137.94 16.3457 138.424 17.02 138.424 18.1791V24.5853H141.859V18.5373C141.859 17.2518 142.47 16.3457 143.566 16.3457C144.599 16.3457 145.083 17.02 145.083 18.1791V24.5853H148.518V17.5679C148.518 15.1445 147.296 13.4797 144.852 13.4797C143.461 13.4797 142.302 14.0698 141.459 15.3763H141.417C140.869 14.2173 139.794 13.4797 138.382 13.4797C136.823 13.4797 135.79 14.2173 135.116 15.3342H135.053V13.7958H131.765V24.5853Z" fill="#626981"/>
</svg>
