<svg width="77" height="48" viewBox="0 0 77 48" fill="none" xmlns="http://www.w3.org/2000/svg">
<path fill-rule="evenodd" clip-rule="evenodd" d="M48.5556 0.0523104C48.4414 -0.0507552 48.2177 0.0048206 48.0025 0.163414C46.7645 1.07777 49.1729 3.67446 50.5766 5.1879L50.5767 5.18796C50.9358 5.57517 51.2292 5.89147 51.3789 6.09053C51.41 6.13764 51.4761 6.12099 51.5529 6.06633C51.6248 6.01681 51.67 5.95282 51.6769 5.89224C51.6935 5.82136 51.6922 5.75342 51.6714 5.70608C51.121 3.67389 50.232 1.45407 48.5556 0.0523104ZM56.8509 1.28704C57.03 1.38814 57.1302 1.48457 57.1796 1.59232C57.2532 1.73366 57.2144 1.83145 57.0907 1.88135C56.1747 2.31844 55.009 3.94651 54.2935 4.94592L54.2935 4.94597L54.2934 4.946C54.141 5.15886 54.009 5.3432 53.9043 5.48143C53.7596 5.66254 53.4259 5.5573 53.3755 5.25948C53.3859 4.92274 54.6965 2.44558 55.4279 1.77088C55.449 1.7516 55.471 1.73096 55.4941 1.70938C55.7859 1.43615 56.2386 1.0123 56.8509 1.28704ZM71.4695 6.0681C71.4838 6.02612 71.4838 5.95616 71.4838 5.9002C71.385 5.89276 71.2861 5.88138 71.1894 5.87024C71.1041 5.86042 71.0205 5.85079 70.94 5.84423C70.8684 5.84423 70.7969 5.83024 70.7397 5.78826C70.6394 5.74628 70.5966 5.69032 70.5823 5.59237C70.5823 5.49443 70.6394 5.42447 70.7397 5.3825C70.7821 5.35135 70.8403 5.34331 70.8968 5.33552C70.9164 5.33281 70.9358 5.33013 70.9543 5.32652L70.9546 5.32649C71.0833 5.31252 71.2121 5.29854 71.3407 5.29854C71.6985 5.29854 72.0562 5.29854 72.414 5.28455C72.5142 5.28455 72.6286 5.29854 72.7145 5.34052C72.9434 5.45246 72.9434 5.69032 72.7289 5.80225C72.6573 5.84423 72.5714 5.85822 72.4712 5.87221C72.3542 5.87221 72.2254 5.88376 72.0848 5.89636L72.0419 5.9002V6.01213C72.0562 6.55782 72.0848 7.11749 72.2279 7.64919C72.2566 7.77511 72.2566 7.90105 72.1993 8.02697C72.0848 8.27883 71.7986 8.3208 71.6126 8.11093C71.4982 7.99911 71.4696 7.85937 71.4409 7.7196L71.4408 7.71915C71.3979 7.15947 71.3979 6.61379 71.4695 6.0681ZM75.4334 6.57181C75.4334 6.57181 75.4192 6.55782 75.4192 6.54383C75.4049 6.55776 75.3942 6.5717 75.3835 6.58564C75.3728 6.59969 75.362 6.61373 75.3476 6.62777C75.2831 6.72591 75.2114 6.82405 75.1397 6.92219C75.0683 7.01994 74.9969 7.11769 74.9326 7.21543L74.861 7.28539C74.7323 7.41133 74.6035 7.42531 74.4461 7.31339C74.2886 7.17347 74.1598 7.00556 74.0311 6.83765C74.0024 6.79568 73.9738 6.75371 73.9452 6.69773C73.9153 6.80492 73.8993 6.89176 73.8827 6.98186C73.8754 7.02114 73.868 7.06103 73.8594 7.10351L73.8582 7.10987C73.8156 7.34561 73.773 7.58148 73.7162 7.83109C73.7019 7.90105 73.6875 7.97101 73.6447 8.05495C73.6017 8.16689 73.5015 8.20887 73.3584 8.19487C73.244 8.18089 73.1581 8.11092 73.1294 7.99899C73.1009 7.94301 73.0866 7.87305 73.1009 7.81709C73.1009 7.56523 73.1152 7.31339 73.1438 7.06153C73.1725 6.83682 73.2048 6.61212 73.2372 6.38741C73.2692 6.16438 73.3013 5.94134 73.3298 5.7183C73.3343 5.70103 73.3373 5.68508 73.3403 5.66965C73.3469 5.63509 73.353 5.60308 73.3728 5.56439C73.4443 5.43846 73.5588 5.35451 73.7019 5.34052C73.8594 5.34052 73.9595 5.41048 74.0454 5.5364C74.0597 5.56439 74.0739 5.59237 74.1026 5.62036C74.214 5.82148 74.3203 6.02762 74.4276 6.23577C74.4995 6.37517 74.5718 6.51547 74.6465 6.65576C74.6465 6.65576 74.6608 6.66975 74.675 6.69773C74.7036 6.65576 74.7179 6.61379 74.7323 6.55782C74.8132 6.40939 74.8799 6.25396 74.9474 6.09648L74.9475 6.09625L74.9478 6.0955C74.9756 6.03063 75.0036 5.96542 75.0327 5.9002C75.09 5.77427 75.1616 5.66233 75.2474 5.5504C75.319 5.42447 75.4478 5.34052 75.6195 5.3685C75.7913 5.38249 75.8914 5.48044 75.9344 5.62036C76.0059 5.84423 76.0774 6.08209 76.1347 6.33395C76.1786 6.54156 76.2113 6.75283 76.2443 6.96589L76.2443 6.96618L76.2444 6.96645L76.2444 6.96672C76.2758 7.16981 76.3075 7.37452 76.3494 7.57923C76.3779 7.71915 76.3637 7.84507 76.3064 7.97101C76.1777 8.22285 75.8914 8.25084 75.7054 8.01297C75.6195 7.91503 75.6053 7.80309 75.5909 7.67717C75.5535 7.36026 75.5052 7.04335 75.4555 6.71718L75.4334 6.57181ZM42.3733 6.79179C42.3274 6.63256 42.3464 6.44098 42.4459 6.17507C42.8512 5.34212 43.7269 5.39972 44.2916 5.43687C44.3362 5.43981 44.379 5.44262 44.4193 5.44485C45.8251 5.52718 49.5093 7.03719 49.8298 7.38988C50.0494 7.75407 49.7876 8.16026 49.4658 8.09276C49.2264 8.03636 48.9156 7.95437 48.5567 7.85968L48.5563 7.85956L48.5558 7.85942L48.5557 7.85941L48.5557 7.8594C46.8686 7.41426 44.1202 6.68909 42.7344 7.02413C42.5557 7.0792 42.4241 7.00831 42.3733 6.79179ZM12.5029 24.4665C12.9047 24.1741 13.3415 23.9306 13.8037 23.7416C14.2873 23.6065 14.8028 23.6288 15.2722 23.8055C15.7415 23.9823 16.1393 24.3036 16.4053 24.7209C16.6432 25.1372 16.7363 25.6179 16.6706 26.0905C16.6049 26.5629 16.384 27.0018 16.0411 27.341C15.7752 27.6159 15.4733 27.8553 15.1436 28.0532C14.3556 28.551 13.5638 29.0341 12.7703 29.5183L12.7702 29.5183L12.7701 29.5184C12.0835 29.9373 11.3956 30.357 10.7078 30.7877C10.4043 31.0201 10.0825 31.2285 9.74518 31.4109C9.23216 31.6611 8.64586 31.7281 8.08765 31.6003C7.52945 31.4727 7.03447 31.1582 6.68828 30.7114C6.42948 30.3951 6.21107 30.0492 6.03787 29.6812C5.6152 28.8126 5.18782 27.9451 4.75998 27.0767L4.75992 27.0766C3.76572 25.0586 2.76906 23.0357 1.82325 20.9816C1.21483 19.7424 0.717578 18.3219 0.235203 16.9439L0.197234 16.8354C-0.0166261 16.4252 -0.0583882 15.9497 0.0808404 15.5098C0.220069 15.07 0.529304 14.7006 0.942765 14.4802C1.35623 14.2599 1.84129 14.206 2.2948 14.3299C2.74832 14.4538 3.1345 14.7459 3.3712 15.1438C4.09879 16.0892 4.74285 17.0934 5.29641 18.1455C6.0636 19.5346 6.81139 20.9236 7.5525 22.3003L7.55265 22.3006L7.55284 22.3009C8.16873 23.445 8.78001 24.5805 9.39396 25.7002C9.47273 25.8366 9.55959 25.9682 9.65412 26.0945C10.6724 25.6759 11.6301 25.1286 12.5029 24.4665ZM15.7245 21.595C18.4301 26.3262 23.8155 27.2547 27.0285 23.5791C29.7082 20.6029 30.0334 15.4138 27.744 11.3438C27.1164 10.1003 26.103 9.08268 24.8484 8.43623C23.5939 7.78978 22.1624 7.54764 20.7586 7.74441C19.6137 7.96327 18.5441 8.46209 17.6497 9.19434C13.4611 12.6919 13.7992 18.2372 15.7245 21.595ZM23.7895 12.5902C24.7016 13.1527 25.3863 14.0066 25.7277 15.0067L25.6887 15.0195C26.0968 16.2014 26.1182 17.4783 25.7498 18.6727C25.3815 19.8671 24.6418 20.9196 23.6335 21.684C23.2885 21.9132 22.8967 22.0659 22.4851 22.1316C22.0735 22.1971 21.6523 22.174 21.2508 22.0637C20.8493 21.9535 20.4774 21.7588 20.1609 21.4933C19.8444 21.2278 19.5912 20.8979 19.4187 20.5266C18.0659 18.25 18.4562 14.4217 20.3163 12.8064C20.7817 12.3856 21.3811 12.1344 22.0137 12.095C22.6462 12.0556 23.2733 12.2305 23.7895 12.5902ZM40.1406 16.6094C39.8116 16.6785 39.4718 16.6827 39.1412 16.6215C38.8106 16.5603 38.4958 16.4351 38.2154 16.2533C37.9701 16.116 37.7589 15.9274 37.597 15.7008C37.4352 15.4743 37.3268 15.2155 37.2795 14.943C37.2322 14.6706 37.2473 14.3913 37.3236 14.1252C37.4 13.8592 37.5358 13.613 37.7211 13.4043C38.044 12.9849 38.5024 12.6847 39.0219 12.5522C40.3783 12.1673 41.7745 11.9326 43.1845 11.8527C43.4943 11.8174 43.8082 11.8431 44.1076 11.928C44.4072 12.0131 44.6863 12.1557 44.9287 12.3477C45.171 12.5396 45.3717 12.777 45.519 13.0458C45.6661 13.3146 45.757 13.6095 45.7861 13.9131C46.1926 15.4043 46.2371 16.9679 45.9162 18.4791C44.7455 23.363 40.713 25.0418 36.1861 23.4774C34.9154 23.0591 33.8013 22.2798 32.9861 21.239C31.899 19.9855 31.1281 18.5 30.7357 16.9019C30.4178 15.4788 30.4526 14.0022 30.8374 12.595C31.222 11.1879 31.9454 9.89105 32.9471 8.8129C33.8977 7.64108 35.1315 6.71886 36.5374 6.12928C37.4257 5.65053 38.4652 5.51441 39.4512 5.74772C39.6748 5.80824 39.8779 5.92617 40.0392 6.08927C40.2006 6.25239 40.3143 6.45472 40.3688 6.67531C40.4232 6.89589 40.4162 7.1267 40.3487 7.34379C40.2811 7.56087 40.1554 7.75632 39.9846 7.90988C39.6597 8.19739 39.3068 8.45299 38.9308 8.67299C37.7744 9.39307 36.768 10.3209 35.965 11.4075C35.4386 12.1106 35.0761 12.9179 34.9031 13.7727C34.73 14.6274 34.7506 15.5088 34.9634 16.3551C35.2584 17.5088 35.9131 18.5444 36.8365 19.3184C39.6983 21.8622 43.4186 19.4074 42.7682 15.9353C42.2824 16.0524 41.8272 16.1729 41.3852 16.2899C40.9633 16.4015 40.5535 16.51 40.1406 16.6094ZM47.5294 18.4408C48.5831 23.7825 53.3961 26.3263 57.6237 23.7825C61.1229 21.7603 63.0741 16.9145 62.2155 12.374C62.0127 11.0036 61.375 9.73014 60.3925 8.73298C59.41 7.73581 58.1321 7.06531 56.7392 6.81598C55.5797 6.67602 54.403 6.82476 53.3181 7.24842C48.2188 9.28339 46.7619 14.6252 47.5294 18.4408ZM58.014 12.3358C58.7101 13.144 59.0924 14.1664 59.0937 15.2229C59.1003 16.4762 58.7065 17.7002 57.9672 18.724C57.228 19.7478 56.1802 20.5203 54.97 20.9336C54.5692 21.0452 54.1483 21.0699 53.7365 21.0059C53.3249 20.9419 52.9325 20.7907 52.5869 20.563C52.2412 20.3353 51.9506 20.0365 51.7354 19.6875C51.5201 19.3385 51.3855 18.9477 51.3408 18.5426C50.7554 15.9606 52.3684 12.4503 54.6578 11.4837C55.2317 11.224 55.8799 11.167 56.492 11.3224C57.104 11.4778 57.6419 11.836 58.014 12.3358ZM66.4908 24.8511C66.427 25.3166 66.1768 25.7382 65.7949 26.0233C65.4131 26.3082 64.9312 26.4333 64.4551 26.3709C63.979 26.3085 63.5478 26.0637 63.2563 25.6904C62.9647 25.3172 62.8368 24.8459 62.9007 24.3804C62.9645 23.915 63.2148 23.4933 63.5965 23.2083C63.9784 22.9232 64.4603 22.7982 64.9364 22.8606C65.4125 22.923 65.8437 23.1677 66.1353 23.541C66.4268 23.9143 66.5548 24.3856 66.4908 24.8511ZM65.3591 7.69365C65.6065 7.32422 65.9695 7.04288 66.3939 6.8916C66.8181 6.74033 67.2811 6.72722 67.7136 6.85423C68.1534 6.96181 68.5418 7.21382 68.8142 7.56807C69.0865 7.92233 69.2261 8.35731 69.2096 8.80017C69.1522 9.51054 69.0436 10.2161 68.8844 10.9114C68.7872 11.4443 68.6906 11.9772 68.5942 12.5097L68.5939 12.5113L68.5934 12.5141L68.5926 12.5181L68.5917 12.5234L68.5905 12.53L68.5902 12.5315C68.2619 14.3433 67.9343 16.1516 67.5836 17.9448C67.3755 18.8733 67.1023 19.7636 66.803 20.7047C66.699 20.999 66.5251 21.2648 66.2958 21.4806C66.1532 21.6429 65.9711 21.7674 65.7663 21.8426C65.5614 21.9178 65.3405 21.9413 65.1239 21.9109C64.9074 21.8804 64.7021 21.7971 64.5272 21.6686C64.3523 21.5399 64.2134 21.3703 64.1235 21.1754C63.9688 20.8256 63.8848 20.4498 63.8762 20.0688C63.8762 18.4917 63.8763 16.9019 63.9803 15.312C64.1572 13.0432 64.5049 10.7901 65.0209 8.57123C65.0817 8.27396 65.1961 7.98968 65.3591 7.73181V7.69365ZM6.8864 36.1401C6.81135 35.7804 6.85347 35.4067 7.00706 35.0715C7.1627 34.7317 7.42476 34.4493 7.75535 34.2647C8.10481 34.0663 8.51503 33.9958 8.91279 34.0657C9.30224 34.1343 9.6549 34.333 9.91057 34.6277C10.3044 34.9578 10.6366 35.3525 10.8922 35.794L10.8987 35.8059C11.7718 37.5005 12.6055 39.1944 13.4256 40.9002L13.4279 40.905C13.9265 41.9952 14.3588 43.1099 14.7383 44.223C14.9774 44.8933 15.027 45.6143 14.8819 46.3097C14.856 46.6666 14.723 47.0083 14.4994 47.2918C14.2713 47.581 13.9595 47.7964 13.6045 47.9099C13.2496 48.0234 12.868 48.0298 12.5092 47.9284C12.1572 47.8289 11.8434 47.6299 11.6068 47.3568C11.0495 46.86 10.6291 46.2332 10.3848 45.5355C10.3166 45.3392 10.2501 45.1434 10.1837 44.9482L10.183 44.946C10.019 44.4637 9.85608 43.9846 9.67269 43.5095C9.02376 41.8344 8.53726 40.677 8.14952 39.7713C8.07722 39.6023 8.00812 39.4417 7.942 39.2879C7.65448 38.6194 7.4213 38.077 7.21291 37.5285C7.046 37.0806 6.93634 36.6142 6.8864 36.1401ZM19.5335 30.8712C18.2475 30.5455 16.9045 30.4981 15.5981 30.7322C14.5861 30.8296 13.5909 31.0578 12.8998 31.5099C12.5483 31.74 12.2641 32.0354 12.1061 32.4109C11.9471 32.7884 11.9268 33.2202 12.0571 33.7013C12.2946 34.5814 12.6029 35.437 12.9102 36.29L12.9115 36.2934L12.9613 36.4317L12.9625 36.4348C13.8891 38.916 14.8246 41.3887 15.7686 43.853C15.8786 44.2413 16.0343 44.616 16.2324 44.9693L16.2361 44.9758C16.4978 45.4148 16.8335 45.8074 17.229 46.1372C17.4267 46.3185 17.6713 46.444 17.9365 46.5001C18.2043 46.5566 18.4829 46.5402 18.7417 46.4525C19.0007 46.3649 19.23 46.2094 19.4048 46.003C19.5767 45.8 19.6893 45.5554 19.7306 45.2952C19.9013 44.588 19.8466 43.8468 19.5739 43.1708C19.4891 42.9444 19.4226 42.7129 19.3526 42.4694L19.3517 42.4662L19.3457 42.4455C19.3242 42.3705 19.3023 42.2944 19.2793 42.217C21.4401 41.3912 23.7392 40.2808 24.5477 37.6975C24.8642 36.8048 24.8906 35.8382 24.6231 34.9301C24.3554 34.021 23.8062 33.2153 23.051 32.6238C22.0233 31.7958 20.8227 31.1976 19.5335 30.8712ZM15.969 34.0397C16.0115 34.0277 16.0544 34.0166 16.0974 34.0062C17.5041 33.79 18.9433 34.0781 20.1501 34.8173C20.6819 35.1789 20.8998 35.5807 20.9372 35.9673C20.9758 36.3654 20.8278 36.7968 20.5304 37.2114C19.9685 37.9947 18.943 38.6216 18.0167 38.7385C17.3414 37.218 16.6557 35.6359 15.969 34.0397ZM33.0196 27.7632C31.5352 27.277 29.6382 27.3965 28.1068 28.088C26.5672 28.7833 25.3527 30.0823 25.3503 31.9677C25.3195 32.7414 25.5456 33.504 25.9948 34.1418C26.4422 34.777 27.0871 35.2542 27.8337 35.5027C28.1763 35.6547 28.5323 35.7681 28.8974 35.8843L28.8975 35.8843L28.8977 35.8844L28.8986 35.8847L28.9147 35.8899C29.0432 35.9308 29.1729 35.9722 29.3035 36.0157C29.5012 36.0817 29.7028 36.1416 29.8987 36.1998L29.9285 36.2086L29.9294 36.2089L29.9315 36.2095C29.9939 36.228 30.0556 36.2463 30.1164 36.2647C30.3814 36.3447 30.6361 36.427 30.8818 36.529C31.8216 36.9389 32.2493 37.4291 32.3916 37.8667C32.533 38.3011 32.4138 38.7486 32.1171 39.1253C31.8184 39.5043 31.354 39.7901 30.8602 39.8819C30.3734 39.9725 29.8658 39.8747 29.4462 39.4995L29.4418 39.4958C29.2046 39.2923 28.9404 39.1211 28.6563 38.9869C28.3719 38.8335 28.0478 38.7647 27.7239 38.789C27.3989 38.8135 27.0884 38.9306 26.8309 39.1259C26.5871 39.2982 26.3981 39.5346 26.2864 39.8077C26.174 40.0825 26.1443 40.383 26.2008 40.6737C26.2622 40.9958 26.4007 41.2994 26.6067 41.5579L26.6237 41.5758C27.2762 42.2617 28.1008 42.7687 29.0156 43.0465C29.9282 43.3235 30.8989 43.3629 31.8316 43.1607C34.3949 42.7323 36.0995 40.9162 36.4506 38.9206C36.8056 36.9026 35.7687 34.7571 32.9841 33.7212L32.9818 33.7203C32.3788 33.5016 31.7554 33.3438 31.1553 33.1919L31.1533 33.1914L31.1347 33.1867C30.9239 33.1333 30.716 33.0807 30.513 33.0262C29.7534 32.8191 29.3781 32.5286 29.225 32.2698C29.0821 32.028 29.1034 31.7623 29.275 31.499C29.6347 30.9469 30.6197 30.4976 31.6639 30.7688L31.6725 30.7706C31.8072 30.8014 31.9374 30.8486 32.0601 30.9114L32.0772 30.9202L32.0954 30.9266C32.3351 31.0114 32.592 31.0385 32.8446 31.0055C33.0972 30.9727 33.3379 30.8807 33.5465 30.7377C33.7551 30.5946 33.9254 30.4045 34.043 30.1835C34.1585 29.9664 34.2199 29.7258 34.2221 29.4812C34.2557 29.1044 34.1551 28.7275 33.9372 28.4147C33.7178 28.1 33.3935 27.8697 33.0196 27.7632ZM47.5221 27.8871C47.2251 27.7453 46.8968 27.678 46.5667 27.6912C46.2364 27.7045 45.9148 27.7979 45.6309 27.9632C45.3486 28.1272 45.1124 28.357 44.9431 28.632C44.7878 28.8636 44.6804 29.1226 44.6268 29.3945C44.5732 29.6663 44.5745 29.9456 44.6305 30.2167C44.6858 30.5651 44.7471 30.9039 44.8077 31.2381C44.9079 31.7911 45.0054 32.3316 45.0698 32.8827L45.0722 32.8967C45.2187 33.761 45.2954 34.6352 45.3023 35.5112L45.3029 35.5236C45.353 36.4696 45.0233 37.3972 44.3846 38.1096L44.3745 38.1223C44.1667 38.3827 43.8888 38.5814 43.5719 38.6963C43.2551 38.8112 42.9119 38.8376 42.5806 38.7725C42.2493 38.7075 41.9431 38.5537 41.6961 38.3282C41.4491 38.1027 41.2709 37.8136 41.182 37.495C40.9922 36.8233 40.8824 36.1324 40.8544 35.4362L41.1786 30.3893C41.1834 30.3235 41.1889 30.2558 41.1945 30.1875L41.195 30.1806C41.2072 30.0296 41.2195 29.876 41.2247 29.7325C41.2323 29.5183 41.2258 29.2979 41.1747 29.0893C41.1225 28.8761 41.0231 28.6733 40.8468 28.5007C40.6723 28.3297 40.4366 28.2036 40.1401 28.1177C39.6039 27.966 39.1505 27.9708 38.7728 28.1276C38.3948 28.2843 38.1358 28.5754 37.9525 28.9116C37.7706 29.245 37.6538 29.6397 37.5655 30.035C37.4999 30.3284 37.4472 30.6363 37.3971 30.9295C37.3798 31.0305 37.3629 31.1296 37.3457 31.226L37.3453 31.2288C37.0774 32.8364 36.9976 34.4686 37.1076 36.0938C37.1281 36.9721 37.3154 37.8391 37.6601 38.6504C38.049 39.6972 38.7534 40.6042 39.6804 41.2516C40.6093 41.9004 41.7178 42.2579 42.8591 42.2768C44.0004 42.2956 45.1207 41.975 46.0715 41.3575C47.0208 40.7408 47.7565 39.8569 48.1813 38.8228C48.7755 37.5056 49.0546 36.073 48.997 34.6343C48.9621 33.5851 48.9037 32.5279 48.8456 31.476V31.476L48.8455 31.4725C48.8169 30.956 48.7884 30.4405 48.7629 29.9282C48.75 29.4145 48.5768 28.9169 48.2663 28.5023C48.0742 28.2401 47.8185 28.0287 47.5221 27.8871ZM58.0018 35.838C58.0121 35.8254 58.0222 35.813 58.0321 35.8007C58.3103 35.4561 58.5899 35.1065 58.8703 34.7559L58.9174 34.697C59.4045 34.0877 59.8947 33.4745 60.3884 32.8731L60.3914 32.8695C60.8436 32.337 61.331 31.8342 61.8506 31.3644C62.1412 31.0448 62.5286 30.8243 62.9566 30.7348C63.3874 30.6447 63.8363 30.6924 64.2373 30.8706C64.6228 31.0243 64.949 31.293 65.1693 31.6386C65.3888 31.983 65.4917 32.386 65.464 32.7905C65.4683 34.0706 65.4071 35.3499 65.2805 36.624L65.2801 36.6276C65.1489 37.7896 64.9935 38.9743 64.8381 40.1594L64.8373 40.1652C64.7021 41.195 64.5671 42.2251 64.4475 43.2414C64.3681 43.9611 64.079 44.6432 63.6145 45.2067C63.4149 45.5051 63.1293 45.7392 62.7935 45.8791C62.4528 46.0213 62.0762 46.0599 61.7127 45.9902C61.3492 45.9204 61.0156 45.7454 60.7551 45.4878C60.4968 45.2323 60.3223 44.9075 60.2537 44.5546C60.0956 43.9275 60.0953 43.2723 60.2531 42.645C60.4942 41.2298 60.7211 39.8149 60.9497 38.3881L61.1163 37.3501L58.2993 39.6701L57.9363 39.9357C57.7529 40.0719 57.5408 40.168 57.3159 40.2162C57.0908 40.2645 56.8575 40.2643 56.6325 40.2156C56.4074 40.1668 56.1959 40.0708 56.0126 39.934C55.8315 39.7988 55.6823 39.6271 55.5752 39.4307C55.0091 38.5032 54.5961 37.4943 54.3514 36.441C54.3345 36.3884 54.3181 36.336 54.3021 36.2822C54.0686 36.7184 53.8634 37.119 53.6522 37.5663C53.1064 38.7227 52.5581 39.884 51.9844 41.0315C51.79 41.4165 51.5517 41.78 51.2746 42.1133C51.0576 42.3839 50.7548 42.5763 50.4137 42.6604C50.072 42.7446 49.7112 42.7153 49.3885 42.5769C49.084 42.4481 48.8284 42.2293 48.6578 41.9511C48.4905 41.6785 48.4129 41.3623 48.4354 41.0454C48.4168 40.6914 48.4708 40.3373 48.5943 40.0039C48.6632 39.7937 48.7315 39.5829 48.7997 39.3721C49.1417 38.3156 49.4849 37.2559 49.9007 36.2502L49.9028 36.2452C50.579 34.6965 51.2754 33.1599 51.9672 31.6335L51.9704 31.6265L51.9752 31.6159C52.2527 31.0036 52.5295 30.3929 52.8038 29.7837C52.9247 29.501 53.086 29.2363 53.2828 28.9977C53.5196 28.6868 53.8448 28.451 54.2178 28.3197C54.5919 28.1882 54.9974 28.1677 55.3833 28.2607C55.7698 28.3463 56.1212 28.5433 56.3917 28.8264C56.663 29.1102 56.8406 29.4675 56.9013 29.8514L56.9047 29.8727V29.8941C56.9047 30.08 56.9102 30.1672 56.9662 30.2561L56.9959 30.3033L57.005 30.358C57.0863 30.848 57.1671 31.3395 57.2475 31.8289C57.4717 33.1928 57.6956 34.5547 57.9371 35.9171C57.9593 35.8901 57.9809 35.8637 58.0018 35.838Z" fill="#626981"/>
</svg>
