<svg width="163" height="36" viewBox="0 0 163 36" fill="none" xmlns="http://www.w3.org/2000/svg">
<path fill-rule="evenodd" clip-rule="evenodd" d="M51.2369 2.20893C51.2369 0.988973 52.2366 0 53.47 0H57.3603C58.2381 0 59.0888 0.300906 59.7676 0.851497L60.951 1.81145L60.9806 1.83815C61.0079 1.82904 61.0352 1.82013 61.0626 1.81145C63.1977 1.13501 65.7881 1.00637 68.432 1.00637C71.0759 1.00637 73.6663 1.13501 75.8013 1.81145C75.8287 1.82013 75.856 1.82904 75.8834 1.83815L75.9129 1.81145L77.0964 0.851497C77.7751 0.300906 78.6259 0 79.5036 0H83.3939C84.6273 0 85.6271 0.988973 85.6271 2.20893V3.57445C85.6271 4.63096 85.1771 5.6386 84.3876 6.35017L83.4329 7.21065C82.9668 7.63073 82.4074 7.93645 81.7998 8.10312L81.574 8.16507C82.4586 10.253 82.9473 12.4848 82.9473 14.2903C82.9473 21.553 78.4044 24.6896 74.4016 27.4534L74.4014 27.4535C71.2492 29.63 68.432 31.5751 68.432 35.122C68.432 31.5751 65.6148 29.63 62.4626 27.4535L62.4624 27.4534C58.4595 24.6896 53.9166 21.553 53.9166 14.2903C53.9166 12.4848 54.4053 10.253 55.2899 8.16507L55.0641 8.10312C54.4565 7.93645 53.8971 7.63073 53.431 7.21065L52.4763 6.35017C51.6868 5.6386 51.2369 4.63096 51.2369 3.57445V2.20893ZM71.3351 20.2278C71.3351 20.5748 71.1821 20.9075 70.9099 21.1529C70.6377 21.3983 70.2685 21.5361 69.8835 21.5361C69.5511 21.5361 69.2305 21.4333 68.9739 21.2473C69.4106 22.4037 70.5283 23.4994 72.2283 21.7374C73.7291 20.1001 72.1616 16.6468 70.6345 14.5976C70.1255 13.9146 69.2898 13.5858 68.432 13.5858C67.5741 13.5858 66.7385 13.9146 66.2295 14.5976C64.7024 16.6468 63.1349 20.1001 64.6356 21.7374C66.3356 23.4994 67.4533 22.4037 67.89 21.2473C67.6335 21.4333 67.3128 21.5361 66.9805 21.5361C66.5954 21.5361 66.2262 21.3983 65.954 21.1529C65.6818 20.9075 65.5289 20.5748 65.5289 20.2278H71.3351ZM62.8733 10.0055H58.8295L62.0164 12.5296C62.7177 13.085 63.7428 12.9074 64.1767 12.1554C64.7246 11.2059 63.9969 10.0055 62.8733 10.0055ZM73.9906 10.0055H78.0344L74.8475 12.5296C74.1462 13.085 73.1212 12.9074 72.6873 12.1554C72.1394 11.2059 72.8671 10.0055 73.9906 10.0055ZM90.4442 24.878H94.0266V11.3648H90.4442V24.878ZM90.4442 9.25749H94.0266V6.04382H90.4442V9.25749ZM99.9175 29.3034H96.3351V11.3649H99.7858V13.0507H99.8648C100.734 11.8654 101.998 10.9961 103.842 10.9961C107.425 10.9961 109.717 13.92 109.717 18.1346C109.717 22.5073 107.346 25.2732 103.869 25.2732C101.972 25.2732 100.734 24.5093 99.9702 23.3502H99.9175V29.3034ZM99.8385 18.24C99.8385 20.6898 100.971 22.2966 103.105 22.2966C104.922 22.2966 106.081 20.7951 106.081 18.24C106.081 15.6849 105.186 13.8937 102.973 13.8937C100.734 13.8937 99.8385 15.8166 99.8385 18.24ZM116.863 25.2732C120.235 25.2732 122.553 23.64 122.553 20.9268C122.553 17.7659 120.05 17.1337 117.785 16.6595C117.475 16.5958 117.168 16.5397 116.872 16.4854L116.872 16.4854C115.331 16.203 114.071 15.9721 114.071 15C114.071 14.0254 114.993 13.4985 116.389 13.4985C117.917 13.4985 118.839 14.0254 118.997 15.4741H122.237C121.973 12.761 119.998 10.9961 116.441 10.9961C113.36 10.9961 110.936 12.3922 110.936 15.3161C110.936 18.2663 113.307 18.9249 115.73 19.399C115.962 19.4454 116.192 19.4881 116.417 19.5298C117.978 19.8193 119.286 20.062 119.286 21.1902C119.286 22.1385 118.391 22.7444 116.81 22.7444C115.203 22.7444 114.097 22.0595 113.86 20.5054H110.541C110.752 23.3766 112.938 25.2732 116.863 25.2732ZM136.155 11.3649V24.878H132.704V23.2976H132.625C131.703 24.5356 130.649 25.2468 128.753 25.2468C125.75 25.2468 124.064 23.3239 124.064 20.3736V11.3649H127.62V19.7678C127.62 21.3483 128.331 22.2176 129.859 22.2176C131.545 22.2176 132.572 20.9532 132.572 19.1619V11.3649H136.155ZM138.472 24.878H142.054V17.0283C142.054 15.2371 143.029 14.078 144.478 14.078C145.795 14.078 146.559 14.8683 146.559 16.3961V24.878H150.141V17.0283C150.141 15.2371 151.063 14.078 152.564 14.078C153.881 14.078 154.645 14.8683 154.645 16.3961V24.878H158.228V15.7902C158.228 12.84 156.621 10.9961 153.776 10.9961C152.064 10.9961 150.641 11.8917 149.72 13.3668H149.667C149.008 11.9444 147.639 10.9961 145.926 10.9961C144.056 10.9961 142.739 11.9444 142.001 13.1824H141.922V11.3649H138.472V24.878ZM3.58244 24.878H0V6.04382H3.58244V24.878ZM12.342 25.2732C16.5303 25.2732 19.4016 22.1649 19.4016 18.1346C19.4016 14.1044 16.5303 10.9961 12.342 10.9961C8.15371 10.9961 5.28249 14.1044 5.28249 18.1346C5.28249 22.1649 8.15371 25.2732 12.342 25.2732ZM12.342 22.5337C10.1294 22.5337 8.91765 20.7688 8.91765 18.1346C8.91765 15.5005 10.1294 13.7093 12.342 13.7093C14.5284 13.7093 15.7664 15.5005 15.7664 18.1346C15.7664 20.7688 14.5284 22.5337 12.342 22.5337ZM31.8931 27.96C30.7604 29.0137 29.0219 29.4878 27.0199 29.4878C23.3321 29.4878 21.0668 27.9073 20.698 25.2732H24.2541C24.5438 26.1161 25.3077 26.7746 26.9673 26.7746C28.9956 26.7746 29.9702 25.8 29.9702 23.9561V22.481H29.8912C29.1009 23.3766 28.0736 24.0615 26.3614 24.0615C23.3585 24.0615 20.4082 21.6907 20.4082 17.6078C20.4082 13.5776 22.8316 10.9961 26.256 10.9961C27.9419 10.9961 29.1799 11.6546 29.9965 12.7873H30.0492V11.3649H33.4999V23.8507C33.4999 25.7473 32.8941 27.038 31.8931 27.96ZM23.9116 17.5551C23.9116 19.8468 25.1234 21.1902 26.9673 21.1902C29.2326 21.1902 30.1546 19.5307 30.1546 17.5288C30.1546 15.5532 29.1009 13.8673 26.9409 13.8673C25.1234 13.8673 23.9116 15.2898 23.9116 17.5551ZM42.2076 25.2732C46.3959 25.2732 49.2672 22.1649 49.2672 18.1346C49.2672 14.1044 46.3959 10.9961 42.2076 10.9961C38.0193 10.9961 35.1481 14.1044 35.1481 18.1346C35.1481 22.1649 38.0193 25.2732 42.2076 25.2732ZM42.2076 22.5337C39.995 22.5337 38.7833 20.7688 38.7833 18.1346C38.7833 15.5005 39.995 13.7093 42.2076 13.7093C44.394 13.7093 45.632 15.5005 45.632 18.1346C45.632 20.7688 44.394 22.5337 42.2076 22.5337ZM159.164 7.31702C158.557 7.31702 158.066 7.80841 158.066 8.41458C158.066 9.0207 158.557 9.51215 159.164 9.51215H161.359C161.965 9.51215 162.457 9.0207 162.457 8.41458C162.457 7.80841 161.965 7.31702 161.359 7.31702H159.164Z" fill="#626981"/>
</svg>
