<svg width="149" height="36" viewBox="0 0 149 36" fill="none" xmlns="http://www.w3.org/2000/svg">
<path fill-rule="evenodd" clip-rule="evenodd" d="M35.1219 17.5609C35.1219 27.2596 27.2597 35.1219 17.5609 35.1219C7.8623 35.1219 0 27.2596 0 17.5609C0 7.86231 7.8623 0 17.5609 0C27.2597 0 35.1219 7.86231 35.1219 17.5609ZM20.2715 8.14711C21.7684 9.6441 21.7684 12.0711 20.2715 13.5681L17.5609 16.2785L14.8505 13.5681C13.3536 12.0711 13.3536 9.6441 14.8505 8.14711C16.3475 6.65015 18.7745 6.65015 20.2715 8.14711ZM26.9749 20.2715C25.4779 21.7685 23.0509 21.7685 21.5539 20.2715L18.8434 17.561L21.5539 14.8505C23.0509 13.3536 25.4779 13.3536 26.9749 14.8505C28.4718 16.3475 28.4718 18.7745 26.9749 20.2715ZM20.2715 21.5539C21.7684 23.0509 21.7684 25.4779 20.2715 26.9748C18.7745 28.4718 16.3475 28.4718 14.8505 26.9748C13.3536 25.4779 13.3536 23.0509 14.8505 21.5539L17.5609 18.8434L20.2715 21.5539ZM8.14709 14.8505C6.65016 16.3475 6.65016 18.7745 8.14709 20.2715C9.6441 21.7685 12.0711 21.7685 13.5681 20.2715L16.2785 17.561L13.5681 14.8505C12.0711 13.3536 9.6441 13.3536 8.14709 14.8505ZM55.4295 25.4634H44.9351V10.3961H48.665V22.3025H55.4295V25.4634ZM59.3712 20.0897C59.3712 22.0495 60.1509 23.3561 61.6471 23.3561C63.1433 23.3561 63.944 22.0495 63.944 20.0897C63.944 18.1299 63.1433 16.8023 61.6471 16.8023C60.1509 16.8023 59.3712 18.1299 59.3712 20.0897ZM67.4211 20.0897C67.4211 23.335 65.1452 25.8006 61.6681 25.8006C58.2121 25.8006 55.8941 23.335 55.8941 20.0897C55.8941 16.8445 58.2121 14.3789 61.6681 14.3789C65.1452 14.3789 67.4211 16.8445 67.4211 20.0897ZM73.4396 29.1933C75.0412 29.1933 76.4531 28.8351 77.4014 27.9921C78.2654 27.2124 78.8344 26.0323 78.8344 24.4097V14.6739H75.5469V15.8329H75.5048C74.8726 14.9268 73.9032 14.3578 72.4702 14.3578C69.794 14.3578 67.9395 16.5915 67.9395 19.7525C67.9395 23.061 70.1943 24.8733 72.6178 24.8733C73.9243 24.8733 74.7461 24.3465 75.3783 23.63H75.4626V24.7047C75.4626 26.0113 74.8515 26.7699 73.3975 26.7699C72.2595 26.7699 71.6905 26.2852 71.5009 25.7162H68.1713C68.5085 27.9711 70.4683 29.1933 73.4396 29.1933ZM73.4185 22.3234C72.1331 22.3234 71.2902 21.2698 71.2902 19.6472C71.2902 18.0034 72.1331 16.9498 73.4185 16.9498C74.8515 16.9498 75.6101 18.172 75.6101 19.6261C75.6101 21.1433 74.9147 22.3234 73.4185 22.3234ZM83.318 20.0897C83.318 22.0495 84.0977 23.3561 85.5939 23.3561C87.0901 23.3561 87.8905 22.0495 87.8905 20.0897C87.8905 18.1299 87.0901 16.8023 85.5939 16.8023C84.0977 16.8023 83.318 18.1299 83.318 20.0897ZM91.3676 20.0897C91.3676 23.335 89.0917 25.8006 85.615 25.8006C82.159 25.8006 79.8409 23.335 79.8409 20.0897C79.8409 16.8445 82.159 14.3789 85.615 14.3789C89.0917 14.3789 91.3676 16.8445 91.3676 20.0897ZM92.3712 25.4634H95.8062V14.674H92.3712V25.4634ZM92.3712 13.1778H95.8062V10.3961H92.3712V13.1778ZM100.731 29.0247H97.2962V14.6739H100.584V15.9804H100.647C101.384 15.0111 102.438 14.3578 103.913 14.3578C106.779 14.3578 108.528 16.8233 108.528 20.0686C108.528 23.5668 106.653 25.8005 103.829 25.8005C102.438 25.8005 101.448 25.2526 100.773 24.3465H100.731V29.0247ZM100.626 20.1951C100.626 21.9441 101.469 23.1453 102.944 23.1453C104.25 23.1453 105.051 22.0284 105.051 20.1951C105.051 18.3406 104.356 17.1184 102.881 17.1184C101.384 17.1184 100.626 18.446 100.626 20.1951ZM114.12 25.8005C116.944 25.8005 119.031 24.5783 119.031 22.2181C119.031 19.4575 116.797 18.9728 114.9 18.6567C114.731 18.6255 114.564 18.5965 114.402 18.5683C113.247 18.3679 112.308 18.2048 112.308 17.5398C112.308 16.8655 112.961 16.5494 113.804 16.5494C114.753 16.5494 115.406 16.8444 115.532 17.8138H118.693C118.525 15.6854 116.881 14.3578 113.825 14.3578C111.276 14.3578 109.168 15.5379 109.168 17.8138C109.168 20.3426 111.17 20.8483 113.046 21.1644C113.196 21.1909 113.344 21.2157 113.49 21.24C114.738 21.4488 115.785 21.624 115.785 22.492C115.785 23.1874 115.132 23.5668 114.099 23.5668C112.961 23.5668 112.245 23.0399 112.119 21.9652H108.873C108.979 24.3465 110.96 25.8005 114.12 25.8005ZM126.921 24.1358C126.141 25.1895 125.193 25.7795 123.696 25.7795C121.21 25.7795 119.903 24.1569 119.903 21.7545V14.674H123.317V21.038C123.317 22.2181 123.844 22.8714 124.94 22.8714C126.12 22.8714 126.836 21.9863 126.836 20.7009V14.674H130.271V25.4634H126.984V24.1358H126.921ZM131.766 25.4634H135.201V19.4153C135.201 18.1299 135.833 17.2237 136.908 17.2237C137.94 17.2237 138.425 17.8981 138.425 19.0571V25.4634H141.86V19.4153C141.86 18.1299 142.471 17.2237 143.567 17.2237C144.599 17.2237 145.084 17.8981 145.084 19.0571V25.4634H148.519V18.446C148.519 16.0226 147.297 14.3578 144.852 14.3578C143.461 14.3578 142.302 14.9478 141.459 16.2544H141.417C140.869 15.0953 139.795 14.3578 138.383 14.3578C136.823 14.3578 135.791 15.0954 135.116 16.2122H135.053V14.6739H131.766V25.4634Z" fill="#626981"/>
</svg>
