<svg width="104" height="40" viewBox="0 0 104 40" fill="none" xmlns="http://www.w3.org/2000/svg">
<path fill-rule="evenodd" clip-rule="evenodd" d="M40 20C40 8.9543 31.0457 0 20 0C8.9543 0 0 8.9543 0 20C0 31.0457 8.9543 40 20 40C31.0457 40 40 31.0457 40 20ZM13.1364 6.7174C14.8229 3.65108 16.9955 1.81769 19.2771 1.49659V8.68187C16.6334 8.73442 14.1143 9.07417 11.8211 9.65044C12.2058 8.58946 12.6472 7.60683 13.1364 6.7174ZM11.8696 6.02065C11.1943 7.2484 10.6091 8.62958 10.1308 10.1308C8.62957 10.6091 7.2484 11.1943 6.02065 11.8696C4.50059 12.7056 3.18794 13.6978 2.17977 14.8157C3.94522 8.73679 8.73679 3.94523 14.8157 2.17977C13.6978 3.18795 12.7056 4.50059 11.8696 6.02065ZM8.68187 19.2771C8.73442 16.6334 9.07416 14.1143 9.65039 11.8211C8.58946 12.2058 7.60683 12.6472 6.7174 13.1364C3.65108 14.8228 1.81769 16.9954 1.49658 19.2771H8.68187ZM11.2902 11.2902C10.603 13.6834 10.1877 16.392 10.128 19.2771H13.2501C16.0056 18.2012 18.2008 16.0062 19.2771 13.2508V10.1279C16.3921 10.1876 13.6834 10.603 11.2902 11.2902ZM1.49658 20.7229H8.68187C8.73442 23.3666 9.07416 25.8857 9.65039 28.1789C8.58946 27.7942 7.60683 27.3528 6.7174 26.8636C3.65108 25.1771 1.81769 23.0046 1.49658 20.7229ZM10.128 20.7229C10.1877 23.608 10.603 26.3166 11.2902 28.7098C13.6834 29.397 16.3921 29.8124 19.2771 29.8721V26.7492C18.2009 23.9938 16.0056 21.7988 13.2501 20.7229H10.128ZM6.02065 28.1304C7.2484 28.8057 8.62957 29.3909 10.1308 29.8692C10.6091 31.3704 11.1943 32.7516 11.8696 33.9793C12.7056 35.4994 13.6978 36.812 14.8157 37.8202C8.73679 36.0548 3.94522 31.2632 2.17977 25.1843C3.18794 26.3022 4.50059 27.2944 6.02065 28.1304ZM13.1364 33.2826C14.8229 36.3489 16.9955 38.1823 19.2771 38.5034V31.3181C16.6334 31.2656 14.1143 30.9258 11.8211 30.3496C12.2058 31.4105 12.6472 32.3932 13.1364 33.2826ZM28.1305 33.9793C27.2944 35.4994 26.3022 36.812 25.1843 37.8202C31.2632 36.0548 36.0548 31.2632 37.8202 25.1843C36.8121 26.3022 35.4994 27.2944 33.9794 28.1304C32.7516 28.8057 31.3704 29.3909 29.8692 29.8692C29.3909 31.3704 28.8057 32.7516 28.1305 33.9793ZM26.8636 33.2826C27.3528 32.3932 27.7942 31.4105 28.1789 30.3496C25.8857 30.9258 23.3666 31.2656 20.7229 31.3181V38.5034C23.0046 38.1823 25.1772 36.3489 26.8636 33.2826ZM33.2826 26.8636C32.3932 27.3528 31.4105 27.7942 30.3496 28.1789C30.9258 25.8857 31.2656 23.3666 31.3181 20.7229H38.5034C38.1823 23.0046 36.3489 25.1771 33.2826 26.8636ZM28.7098 28.7098C29.397 26.3166 29.8124 23.608 29.8721 20.7229H26.7508C23.9945 21.7991 21.7988 23.9951 20.7229 26.7515V29.8721C23.608 29.8124 26.3166 29.397 28.7098 28.7098ZM38.5034 19.2771H31.3181C31.2656 16.6334 30.9258 14.1143 30.3496 11.8211C31.4105 12.2058 32.3932 12.6472 33.2826 13.1364C36.3489 14.8228 38.1823 16.9954 38.5034 19.2771ZM29.8721 19.2771C29.8124 16.392 29.397 13.6834 28.7098 11.2902C26.3166 10.603 23.608 10.1876 20.7229 10.1279V13.2485C21.7988 16.0049 23.9945 18.2009 26.7508 19.2771H29.8721ZM33.9794 11.8696C32.7516 11.1943 31.3704 10.6091 29.8692 10.1308C29.3909 8.62958 28.8057 7.2484 28.1305 6.02065C27.2944 4.50059 26.3022 3.18795 25.1843 2.17977C31.2632 3.94523 36.0548 8.73679 37.8202 14.8157C36.8121 13.6978 35.4994 12.7056 33.9794 11.8696ZM26.8636 6.7174C25.1772 3.65108 23.0046 1.81769 20.7229 1.49659V8.68187C23.3666 8.73442 25.8857 9.07417 28.1789 9.65044C27.7942 8.58946 27.3528 7.60684 26.8636 6.7174ZM50.389 17.572H47.6546V3.19629H50.389V17.572ZM50.3488 35.2381H47.6144V24.9238H50.3488V35.2381ZM50.3488 23.3153H47.6144V20.8624H50.3488V23.3153ZM54.8451 38.6159H52.1107V24.9238H54.7446V26.2105H54.8049C55.4684 25.3058 56.4335 24.6423 57.8409 24.6423C60.5753 24.6423 62.3245 26.874 62.3245 30.091C62.3245 33.4286 60.515 35.5397 57.861 35.5397C56.4134 35.5397 55.4684 34.9566 54.8854 34.072H54.8451V38.6159ZM54.7848 30.1714C54.7848 32.0413 55.6494 33.2677 57.278 33.2677C58.6653 33.2677 59.5499 32.1217 59.5499 30.1714C59.5499 28.2211 58.8663 26.8539 57.1774 26.8539C55.4684 26.8539 54.7848 28.3217 54.7848 30.1714ZM67.7791 35.5397C70.3526 35.5397 72.1219 34.2931 72.1219 32.2222C72.1219 29.8095 70.2119 29.327 68.4828 28.9651C68.2462 28.9165 68.0122 28.8736 67.7861 28.8322C66.6097 28.6167 65.6478 28.4404 65.6478 27.6984C65.6478 26.9545 66.3515 26.5523 67.4172 26.5523C68.5833 26.5523 69.287 26.9545 69.4076 28.0603H71.8807C71.6796 25.9894 70.1717 24.6423 67.4574 24.6423C65.105 24.6423 63.2552 25.7079 63.2552 27.9396C63.2552 30.1915 65.0648 30.6942 66.9145 31.0561C67.0915 31.0915 67.267 31.1241 67.4384 31.1559C68.63 31.3768 69.6288 31.5621 69.6288 32.4233C69.6288 33.1471 68.9452 33.6095 67.7388 33.6095C66.5124 33.6095 65.6679 33.0868 65.487 31.9005H62.9536C63.1145 34.0921 64.7833 35.5397 67.7791 35.5397ZM82.5036 24.9238V35.2381H79.8698V34.0317H79.8095C79.1057 34.9767 78.3015 35.5196 76.8539 35.5196C74.5618 35.5196 73.275 34.0518 73.275 31.8V24.9238H75.9893V31.3375C75.9893 32.5439 76.5322 33.2074 77.6983 33.2074C78.9851 33.2074 79.7692 32.2423 79.7692 30.8751V24.9238H82.5036ZM84.2723 35.2381H87.0068V29.2465C87.0068 27.8793 87.7507 26.9947 88.8565 26.9947C89.8618 26.9947 90.4449 27.5978 90.4449 28.764V35.2381H93.1793V29.2465C93.1793 27.8793 93.883 26.9947 95.029 26.9947C96.0343 26.9947 96.6174 27.5978 96.6174 28.764V35.2381H99.3518V28.3016C99.3518 26.0497 98.1253 24.6423 95.9539 24.6423C94.647 24.6423 93.5613 25.3259 92.8576 26.4518H92.8174C92.3147 25.3661 91.2692 24.6423 89.9623 24.6423C88.5348 24.6423 87.5295 25.3661 86.9665 26.3111H86.9062V24.9238H84.2723V35.2381ZM57.075 17.8736C60.2719 17.8736 62.4634 15.5011 62.4634 12.4249C62.4634 9.34869 60.2719 6.9762 57.075 6.9762C53.8782 6.9762 51.6866 9.34869 51.6866 12.4249C51.6866 15.5011 53.8782 17.8736 57.075 17.8736ZM57.075 15.7826C55.3861 15.7826 54.4613 14.4355 54.4613 12.4249C54.4613 10.4143 55.3861 9.04711 57.075 9.04711C58.7438 9.04711 59.6888 10.4143 59.6888 12.4249C59.6888 14.4355 58.7438 15.7826 57.075 15.7826ZM71.998 19.9244C71.1335 20.7287 69.8065 21.0906 68.2784 21.0906C65.4636 21.0906 63.7345 19.8842 63.453 17.8736H66.1673C66.3885 18.517 66.9715 19.0196 68.2382 19.0196C69.7864 19.0196 70.5303 18.2757 70.5303 16.8683V15.7424H70.47C69.8668 16.426 69.0827 16.9487 67.7758 16.9487C65.4837 16.9487 63.2318 15.1392 63.2318 12.0228C63.2318 8.94658 65.0816 6.9762 67.6953 6.9762C68.9821 6.9762 69.9271 7.47884 70.5504 8.3434H70.5906V7.25768H73.2245V16.7879C73.2245 18.2355 72.762 19.2207 71.998 19.9244ZM65.9059 11.9826C65.9059 13.7318 66.8308 14.7572 68.2382 14.7572C69.9673 14.7572 70.671 13.4905 70.671 11.9625C70.671 10.4545 69.8668 9.16774 68.2181 9.16774C66.8308 9.16774 65.9059 10.2535 65.9059 11.9826ZM79.8709 17.8736C83.0677 17.8736 85.2593 15.5011 85.2593 12.4249C85.2593 9.34869 83.0677 6.9762 79.8709 6.9762C76.6741 6.9762 74.4825 9.34869 74.4825 12.4249C74.4825 15.5011 76.6741 17.8736 79.8709 17.8736ZM79.8709 15.7826C78.182 15.7826 77.2571 14.4355 77.2571 12.4249C77.2571 10.4143 78.182 9.04711 79.8709 9.04711C81.5397 9.04711 82.4847 10.4143 82.4847 12.4249C82.4847 14.4355 81.5397 15.7826 79.8709 15.7826ZM99.4784 13.6313H87.6563V11.2789H99.4784V13.6313ZM100.345 23.1717C100.345 22.709 100.72 22.3339 101.183 22.3339H102.858C103.321 22.3339 103.696 22.709 103.696 23.1717C103.696 23.6343 103.321 24.0094 102.858 24.0094H101.183C100.72 24.0094 100.345 23.6343 100.345 23.1717Z" fill="#626981"/>
</svg>
