<svg width="150" height="28" viewBox="0 0 150 28" fill="none" xmlns="http://www.w3.org/2000/svg">
<path fill-rule="evenodd" clip-rule="evenodd" d="M13.842 11.0736C7.42961 11.0736 2.14876 6.22882 1.46021 0H10.3693C10.9194 1.37881 12.2669 2.35313 13.842 2.35313C15.417 2.35313 16.7645 1.37881 17.3145 0H26.2237C25.5352 6.22882 20.2543 11.0736 13.842 11.0736ZM48.6996 23.6953C49.6712 24.7348 51.0722 25.2545 52.9024 25.2545C54.7327 25.2545 56.1336 24.7348 57.1053 23.6953C58.0769 22.6559 58.5627 21.1872 58.5627 19.2891V6.81608C58.5627 4.91801 58.0769 3.44926 57.1053 2.40984C56.1336 1.37042 54.7327 0.850708 52.9024 0.850708C51.0722 0.850708 49.6712 1.37042 48.6996 2.40984C47.728 3.44926 47.2422 4.91801 47.2422 6.81608V19.2891C47.2422 21.1872 47.728 22.6559 48.6996 23.6953ZM54.8344 19.5263C54.8344 21.0855 54.1904 21.8651 52.9024 21.8651C51.6144 21.8651 50.9704 21.0855 50.9704 19.5263V6.57882C50.9704 5.01968 51.6144 4.24012 52.9024 4.24012C54.1904 4.24012 54.8344 5.01968 54.8344 6.57882V19.5263ZM39.723 1.1897H35.9946V24.9156H45.8578V21.5261H39.723V1.1897ZM66.3717 25.2545C64.564 25.2545 63.1856 24.7461 62.2365 23.7292C61.2875 22.6899 60.813 21.2098 60.813 19.2891V6.81608C60.813 4.89541 61.2875 3.42666 62.2365 2.40984C63.1856 1.37042 64.564 0.850708 66.3717 0.850708C68.1794 0.850708 69.5577 1.37042 70.5067 2.40984C71.4558 3.42666 71.9303 4.89541 71.9303 6.81608V8.84972H68.4053V6.57882C68.4053 5.01968 67.7613 4.24012 66.4733 4.24012C65.1854 4.24012 64.5414 5.01968 64.5414 6.57882V19.5603C64.5414 21.0969 65.1854 21.8651 66.4733 21.8651C67.7613 21.8651 68.4053 21.0969 68.4053 19.5603V14.9168H66.5412V11.5274H71.9303V19.2891C71.9303 21.2098 71.4558 22.6899 70.5067 23.7292C69.5577 24.7461 68.1794 25.2545 66.3717 25.2545ZM75.5104 23.6953C76.482 24.7348 77.8829 25.2545 79.7132 25.2545C81.5436 25.2545 82.9445 24.7348 83.9161 23.6953C84.8878 22.6559 85.3736 21.1872 85.3736 19.2891V6.81608C85.3736 4.91801 84.8878 3.44926 83.9161 2.40984C82.9445 1.37042 81.5436 0.850708 79.7132 0.850708C77.8829 0.850708 76.482 1.37042 75.5104 2.40984C74.5387 3.44926 74.0529 4.91801 74.0529 6.81608V19.2891C74.0529 21.1872 74.5387 22.6559 75.5104 23.6953ZM81.6452 19.5263C81.6452 21.0855 81.0012 21.8651 79.7132 21.8651C78.4253 21.8651 77.7813 21.0855 77.7813 19.5263V6.57882C77.7813 5.01968 78.4253 4.24012 79.7132 4.24012C81.0012 4.24012 81.6452 5.01968 81.6452 6.57882V19.5263ZM87.9021 1.1897H91.6305V24.9156H87.9021V1.1897ZM99.9134 1.1897H94.4225V24.9156H98.1512V15.2557H99.9134C101.766 15.2557 103.156 14.7586 104.083 13.7645C105.009 12.7702 105.472 11.3128 105.472 9.39206V7.05338C105.472 5.13271 105.009 3.67527 104.083 2.68104C103.156 1.68681 101.766 1.1897 99.9134 1.1897ZM101.269 11.3579C100.975 11.6968 100.524 11.8663 99.9134 11.8663H98.1512V4.57912H99.9134C100.524 4.57912 100.975 4.74858 101.269 5.08752C101.586 5.42646 101.744 6.00266 101.744 6.81613V9.62932C101.744 10.4428 101.586 11.019 101.269 11.3579ZM112.476 25.2545C110.669 25.2545 109.302 24.7461 108.375 23.7292C107.449 22.6899 106.985 21.2098 106.985 19.2891V17.9333H110.51V19.5603C110.51 21.0969 111.154 21.8651 112.442 21.8651C113.075 21.8651 113.549 21.6843 113.866 21.3228C114.205 20.9387 114.374 20.3285 114.374 19.4925C114.374 18.4983 114.149 17.6283 113.697 16.8827C113.245 16.1143 112.409 15.1992 111.188 14.1372C109.652 12.7814 108.578 11.5613 107.968 10.4766C107.359 9.36943 107.053 8.12665 107.053 6.74829C107.053 4.87282 107.527 3.42666 108.477 2.40984C109.426 1.37042 110.804 0.850708 112.612 0.850708C114.397 0.850708 115.742 1.37042 116.645 2.40984C117.572 3.42666 118.035 4.89541 118.035 6.81608V7.79901H114.51V6.57882C114.51 5.76536 114.352 5.17786 114.036 4.81632C113.719 4.43219 113.256 4.24012 112.646 4.24012C111.403 4.24012 110.782 4.99709 110.782 6.51103C110.782 7.36968 111.008 8.17184 111.46 8.91751C111.934 9.66315 112.781 10.567 114.002 11.629C115.561 12.9848 116.634 14.2163 117.222 15.3235C117.809 16.4307 118.103 17.7299 118.103 19.2213C118.103 21.1646 117.617 22.6559 116.645 23.6953C115.696 24.7348 114.306 25.2545 112.476 25.2545ZM121.528 23.7293C122.478 24.7461 123.856 25.2545 125.664 25.2545C127.471 25.2545 128.849 24.7461 129.799 23.7293C130.748 22.6899 131.222 21.2098 131.222 19.2891V1.1897H127.63V19.5604C127.63 20.3738 127.46 20.9613 127.121 21.3229C126.805 21.6843 126.342 21.8651 125.731 21.8651C125.122 21.8651 124.647 21.6843 124.308 21.3229C123.991 20.9613 123.834 20.3738 123.834 19.5604V1.1897H120.105V19.2891C120.105 21.2098 120.579 22.6899 121.528 23.7293ZM133.877 1.1897H139.199L141.572 18.1706H141.639L144.012 1.1897H149.333V24.9156H145.808V6.9517H145.741L143.029 24.9156H139.91L137.199 6.9517H137.132V24.9156H133.877V1.1897ZM8.30518 16.6104C8.30518 21.1972 4.58685 24.9156 0 24.9156V19.1019C1.37604 19.1019 2.49154 17.9864 2.49154 16.6104C2.49154 15.2343 1.37604 14.1188 0 14.1188V8.30518C4.58685 8.30518 8.30518 12.0235 8.30518 16.6104ZM27.684 11.0736C26.2647 10.624 24.7534 10.3815 23.1853 10.3815C14.9672 10.3815 8.30521 17.0436 8.30521 25.2616C8.30521 26.0865 8.37233 26.8957 8.50137 27.684H17.7469C17.4168 26.944 17.2333 26.1243 17.2333 25.2616C17.2333 21.9744 19.8981 19.3096 23.1853 19.3096C24.982 19.3096 26.5926 20.1056 27.684 21.3642V11.0736Z" fill="#626981"/>
</svg>
