<svg width="134" height="31" viewBox="0 0 134 31" fill="none" xmlns="http://www.w3.org/2000/svg">
<path fill-rule="evenodd" clip-rule="evenodd" d="M27.01 5.59258C27.9298 6.686 28.6875 7.90598 29.26 9.21508C30.094 11.1238 30.5229 13.1846 30.52 15.2676C30.5171 19.3057 28.9132 23.1778 26.06 26.0353C23.2066 28.8928 19.3368 30.5024 15.2988 30.5113C13.3425 30.5102 11.4051 30.1282 9.59502 29.3863C8.30392 28.8733 7.0919 28.1802 5.99503 27.3276C4.28557 26.0248 2.87139 24.3748 1.84557 22.486C0.819746 20.5974 0.205553 18.5129 0.043384 16.3696C-0.118774 14.2265 0.174795 12.0733 0.904752 10.0517C1.63471 8.03017 2.78451 6.18613 4.27849 4.64098C5.77246 3.09581 7.57673 1.88456 9.57252 1.08694C11.5684 0.289318 13.7105 -0.0765772 15.8579 0.0133216C18.0053 0.10322 20.1094 0.646876 22.0316 1.6085C23.9537 2.57014 25.6505 3.92796 27.01 5.59258ZM20.3725 4.23132C18.7799 3.4901 17.0443 3.10614 15.2875 3.10632L15.2988 3.08382C13.2492 3.0823 11.2326 3.59927 9.43651 4.58665C7.64042 5.57403 6.12331 6.99972 5.02637 8.73099C3.92942 10.4624 3.28827 12.443 3.16258 14.4887C3.0369 16.5344 3.43076 18.5788 4.30753 20.4313C4.81568 19.8975 5.12882 19.2078 5.19628 18.4738C5.3955 17.0975 6.03449 15.8225 7.01784 14.8392C8.00119 13.8558 9.27619 13.2168 10.6525 13.0176C11.4262 12.9474 12.1519 12.6126 12.7073 12.0694C13.2627 11.5263 13.6139 10.8082 13.7013 10.0363C13.9005 8.66 14.5395 7.385 15.5229 6.40165C16.5062 5.41828 17.7812 4.7793 19.1575 4.58008C19.5758 4.51635 19.9842 4.39913 20.3725 4.23132ZM6.11878 23.0213C6.07378 23.0613 6.02878 23.1013 5.98378 23.1426C6.85575 24.1632 7.88952 25.0335 9.04377 25.7188C9.3456 25.2553 9.53449 24.7274 9.59502 24.1776C9.80123 22.7984 10.4469 21.5227 11.4359 20.5397C12.425 19.5568 13.7046 18.919 15.085 18.7213C15.8598 18.6449 16.5843 18.3031 17.1359 17.7535C17.6874 17.204 18.032 16.4808 18.1113 15.7063C18.307 14.3285 18.9449 13.0517 19.9288 12.0676C20.9129 11.0837 22.1897 10.4458 23.5675 10.2501C24.3435 10.1767 25.0668 9.82505 25.6038 9.26008C25.6582 9.21317 25.7073 9.16029 25.75 9.10258C25.054 7.91333 24.1556 6.85491 23.095 5.97508C22.1636 6.84775 20.9844 7.40986 19.72 7.58382C18.9437 7.63682 18.2126 7.96841 17.6613 8.51758C17.08 9.08773 16.7312 9.85352 16.6825 10.6663C16.4833 12.0427 15.8443 13.3176 14.8609 14.301C13.8776 15.2843 12.6026 15.9233 11.2263 16.1226C10.4523 16.1859 9.7281 16.5301 9.19002 17.0901C8.63089 17.6346 8.28393 18.3604 8.21128 19.1376C8.03208 20.5201 7.38963 21.801 6.38878 22.7713C6.29878 22.8613 6.20878 22.9413 6.11878 23.0213ZM11.9125 27.0126C13.0098 27.3272 14.146 27.4863 15.2875 27.4851V27.4288C17.1467 27.4216 18.9794 26.9886 20.6452 26.1631C22.3111 25.3376 23.7656 24.1414 24.8974 22.6665C26.0291 21.1915 26.8081 19.4768 27.1743 17.654C27.5405 15.8313 27.4843 13.949 27.01 12.1513C26.1559 12.7552 25.1673 13.1414 24.13 13.2763C23.3573 13.3552 22.6353 13.6982 22.0861 14.2474C21.5369 14.7967 21.1939 15.5186 21.115 16.2913C20.9152 17.6692 20.2745 18.9455 19.289 19.929C18.3034 20.9126 17.0259 21.5506 15.6475 21.7476C14.8748 21.8264 14.1528 22.1695 13.6036 22.7187C13.0544 23.2679 12.7114 23.9898 12.6325 24.7626C12.5319 25.5502 12.2879 26.3128 11.9125 27.0126ZM42.0738 8.59635H38.6988V22.2426H42.0738V8.59635ZM48.6775 11.7014C45.4825 11.7014 43.4125 13.7151 43.4125 17.0901C43.4125 20.5214 45.4375 22.4901 48.6775 22.4901C51.9175 22.4901 53.9425 20.4651 53.9425 17.0901C53.9425 13.7151 51.8725 11.7014 48.6775 11.7014ZM48.6775 14.1426C49.825 14.1426 50.5563 15.2339 50.5563 17.0901V17.1014C50.5563 18.9801 49.8363 20.0151 48.6775 20.0151C47.5188 20.0151 46.81 18.9126 46.81 17.0901C46.81 15.2676 47.53 14.1426 48.6775 14.1426ZM58.4538 22.9064H55.2138V22.9176C55.405 24.7851 57.2613 26.1238 60.2425 26.1238C63.4488 26.1238 65.62 24.5939 65.62 22.1301V11.8926H62.245V13.7714C61.991 13.1642 61.5574 12.6492 61.0025 12.2952C60.4475 11.9414 59.7977 11.7656 59.14 11.7914C56.5525 11.7914 55 13.8276 55 17.0564C55 20.2851 56.6313 22.1639 59.095 22.1639C59.7327 22.1985 60.3662 22.0412 60.9136 21.7124C61.461 21.3834 61.8974 20.8981 62.1663 20.3189H62.2338V22.2089C62.2338 23.2214 61.5588 23.9189 60.2763 23.9189C59.904 23.9689 59.5255 23.8974 59.1971 23.715C58.8687 23.5325 58.608 23.2489 58.4538 22.9064ZM60.2988 14.4014C61.4913 14.4014 62.245 15.4364 62.245 17.0789V17.0901C62.245 18.7551 61.5025 19.6664 60.2988 19.6664C59.095 19.6664 58.375 18.7326 58.375 17.0789C58.375 15.4251 59.1063 14.4014 60.2988 14.4014ZM72.1563 11.6901C68.9613 11.6901 66.8913 13.7039 66.8913 17.0789V17.0901C66.8913 20.5214 68.905 22.4789 72.1563 22.4789C75.4075 22.4789 77.4325 20.4539 77.4325 17.0789C77.4325 13.7039 75.3513 11.6901 72.1563 11.6901ZM72.1563 14.1314C73.3038 14.1314 74.035 15.2226 74.035 17.0789V17.1014C74.035 18.9801 73.3488 20.0264 72.2013 20.0264C71.0538 20.0264 70.345 18.9351 70.345 17.1014C70.345 15.2676 71.0088 14.1314 72.1563 14.1314ZM78.9809 8.47554C78.7987 8.76364 78.7062 9.09934 78.715 9.4401V9.4626C78.7129 9.68906 78.7577 9.9135 78.8466 10.1217C78.9353 10.3301 79.0663 10.5179 79.2311 10.6731C79.3959 10.8285 79.591 10.9479 79.8043 11.0242C80.0175 11.1005 80.2441 11.1319 80.47 11.1164C80.8108 11.1096 81.142 11.0017 81.4213 10.8065C81.7008 10.6113 81.916 10.3375 82.0396 10.0199C82.1634 9.70223 82.1899 9.35505 82.116 9.02228C82.0421 8.6895 81.8711 8.38617 81.6245 8.15073C81.378 7.9153 81.0672 7.75835 80.7314 7.69978C80.3956 7.64123 80.05 7.68369 79.7383 7.8218C79.4267 7.9599 79.1631 8.18742 78.9809 8.47554ZM82.09 11.9151H78.715V22.2426H82.09V11.9151ZM90.28 22.3776C92.845 22.3776 94.3413 20.4539 94.3413 17.0789L94.3863 17.1014C94.3863 13.7263 92.845 11.7914 90.2575 11.7464C89.5948 11.7168 88.939 11.892 88.3795 12.2483C87.8199 12.6046 87.3836 13.1246 87.13 13.7376H87.0625V11.8926H83.6875V25.5501H87.0625V20.4651H87.13C87.396 21.0681 87.8407 21.5749 88.4041 21.917C88.9675 22.259 89.6224 22.4198 90.28 22.3776ZM89.0313 14.3901C90.2125 14.3901 90.9663 15.4364 90.9663 17.0789V17.1014C90.9663 18.7326 90.2125 19.7564 89.0313 19.7564C87.85 19.7564 87.0738 18.7101 87.085 17.0789C87.0963 15.4476 87.85 14.3901 89.0313 14.3901ZM104.714 15.1326C104.635 13.0064 102.936 11.6789 100.135 11.6789V11.7014C97.345 11.7014 95.5338 13.0176 95.5113 15.0426C95.5113 16.6176 96.5688 17.6864 98.5825 18.1026L100.529 18.5189C101.339 18.6876 101.654 18.8001 101.654 19.3401C101.654 19.8801 101.204 20.2064 100.214 20.2064C99.2238 20.2064 98.6163 19.7563 98.515 18.9914H95.2638C95.41 21.0951 97.2888 22.4676 100.158 22.4676C103.026 22.4676 104.973 21.0951 104.973 18.9576C104.973 17.3939 104.095 16.5614 102.036 16.1226L99.8763 15.6839C99.1225 15.5264 98.7513 15.3576 98.7513 14.8289C98.7513 14.3001 99.1675 13.9401 100.101 13.9401C101.035 13.9401 101.643 14.4014 101.643 15.1326H104.714ZM112.983 22.2201H116.234L116.279 11.8926H112.904V17.7201C112.936 17.9633 112.915 18.2106 112.844 18.4454C112.773 18.6801 112.652 18.8969 112.491 19.0812C112.329 19.2655 112.129 19.4131 111.906 19.514C111.682 19.6149 111.439 19.6668 111.194 19.6664C110.148 19.6664 109.518 19.0139 109.518 17.7876V11.8926H106.143V18.5639C106.1 19.0756 106.168 19.5906 106.341 20.0741C106.514 20.5575 106.79 20.9981 107.148 21.366C107.506 21.734 107.939 22.0206 108.418 22.2068C108.897 22.393 109.41 22.4742 109.923 22.4451C110.592 22.4822 111.253 22.2893 111.798 21.8985C112.342 21.5075 112.736 20.9422 112.915 20.2964H112.983V22.2201ZM121.128 11.8926H117.865L117.809 22.2426H121.184V16.1564C121.158 15.9447 121.178 15.7302 121.241 15.5268C121.305 15.3233 121.411 15.1356 121.553 14.9762C121.693 14.8168 121.868 14.6891 122.062 14.6016C122.256 14.5142 122.467 14.469 122.68 14.4689C123.603 14.4689 124.109 15.0314 124.109 16.0663V22.2426H127.315V16.1339C127.288 15.9249 127.305 15.7125 127.367 15.5109C127.429 15.3095 127.533 15.1236 127.673 14.9658C127.812 14.8079 127.984 14.6819 128.177 14.5962C128.369 14.5105 128.578 14.4671 128.789 14.4689C129.734 14.4689 130.24 14.9864 130.24 16.1114V22.2426H133.615V15.2114C133.649 14.7534 133.585 14.2934 133.429 13.8615C133.273 13.4296 133.028 13.0353 132.709 12.7042C132.391 12.3732 132.007 12.1128 131.581 11.9401C131.156 11.7673 130.699 11.6859 130.24 11.7014C129.537 11.6711 128.843 11.8758 128.269 12.2832C127.694 12.6906 127.271 13.2774 127.068 13.9514H127C126.892 13.2845 126.537 12.6828 126.006 12.2659C125.473 11.849 124.805 11.6475 124.131 11.7014C123.47 11.6891 122.822 11.8968 122.291 12.2916C121.76 12.6865 121.374 13.2465 121.195 13.8839H121.128V11.8926Z" fill="#626981"/>
</svg>
