<svg width="125" height="40" viewBox="0 0 125 40" fill="none" xmlns="http://www.w3.org/2000/svg">
<path d="M118.481 2.14869C118.481 0.965694 119.44 0.00569434 120.623 0.00569434H122.052C122.62 0.00569434 123.165 0.231474 123.567 0.633364C123.969 1.03525 124.195 1.58034 124.195 2.14869C124.195 2.71705 123.969 3.26213 123.567 3.66402C123.165 4.06591 122.62 4.29169 122.052 4.29169H120.623C120.341 4.29169 120.063 4.23626 119.803 4.12855C119.543 4.02084 119.307 3.86297 119.108 3.66396C118.909 3.46495 118.751 3.2287 118.643 2.96871C118.536 2.70871 118.48 2.43007 118.481 2.14869ZM58.4896 14.2897C58.4896 22.1777 52.0956 28.5727 44.2066 28.5727C36.3186 28.5727 29.9236 22.1777 29.9236 14.2897C29.9236 6.39969 36.3186 0.00669434 44.2066 0.00669434C52.0956 0.00669434 58.4896 6.39969 58.4896 14.2897ZM27.1376 14.2187C27.9276 14.2187 28.5736 14.8587 28.4946 15.6447C28.2246 18.3345 27.1968 20.8925 25.5307 23.0213C23.8645 25.1502 21.6285 26.7625 19.0823 27.6708C16.5361 28.5792 13.7845 28.7463 11.1471 28.1528C8.50973 27.5593 6.09494 26.2294 4.1834 24.3179C2.27185 22.4064 0.942035 19.9916 0.348505 17.3542C-0.245025 14.7168 -0.0778988 11.9652 0.830461 9.419C1.73882 6.87284 3.35111 4.63675 5.47996 2.9706C7.6088 1.30445 10.1668 0.276669 12.8566 0.00669434C13.6416 -0.0733057 14.2826 0.574694 14.2826 1.36269V12.7897C14.2826 13.5797 14.9226 14.2187 15.7116 14.2187H27.1376ZM78.4866 31.4297C79.623 31.4297 80.713 31.8811 81.5165 32.6847C82.3201 33.4883 82.7716 34.5782 82.7716 35.7147C82.7716 36.8511 82.3201 37.9411 81.5165 38.7446C80.713 39.5482 79.623 39.9997 78.4866 39.9997H71.3456C70.2091 39.9997 69.1192 39.5482 68.3156 38.7446C67.512 37.9411 67.0606 36.8511 67.0606 35.7147C67.0606 34.5782 67.512 33.4883 68.3156 32.6847C69.1192 31.8811 70.2091 31.4297 71.3456 31.4297H78.4866ZM74.2016 28.5727C82.0906 28.5727 88.4856 22.1777 88.4856 14.2897C88.489 11.8666 87.8732 9.48291 86.6966 7.36469L89.0566 5.00469C89.3284 4.73273 89.544 4.40988 89.6911 4.05459C89.8382 3.69929 89.9138 3.31851 89.9137 2.93399C89.9136 2.54946 89.8378 2.16872 89.6906 1.81349C89.5433 1.45827 89.3276 1.13553 89.0556 0.863694C88.7836 0.591858 88.4608 0.376252 88.1055 0.229185C87.7502 0.0821186 87.3694 0.00647223 86.9849 0.0065651C86.6004 0.00665796 86.2196 0.0824882 85.8644 0.229726C85.5092 0.376964 85.1864 0.592727 84.9146 0.864694L82.8546 2.92469C80.3694 1.0266 77.3278 0.000662512 74.2006 0.00569434C66.3136 0.00669434 59.9196 6.39969 59.9196 14.2897C59.9196 22.1777 66.3136 28.5727 74.2016 28.5727ZM118.481 14.2897C118.481 22.1777 112.086 28.5727 104.197 28.5727C96.3086 28.5727 89.9136 22.1777 89.9136 14.2897C89.9136 6.39969 96.3086 0.00669434 104.197 0.00669434C112.086 0.00669434 118.481 6.40069 118.481 14.2897Z" fill="#626981"/>
</svg>
