<svg width="162" height="29" viewBox="0 0 162 29" fill="none" xmlns="http://www.w3.org/2000/svg">
<path fill-rule="evenodd" clip-rule="evenodd" d="M7.75519 14.8047C7.55843 15.3554 7.24235 15.8558 6.8295 16.2704H6.83167C6.35669 16.7465 5.76904 17.0952 5.12315 17.2842C4.47726 17.4731 3.79405 17.4963 3.13683 17.3515C2.47959 17.2066 1.86961 16.8985 1.3634 16.4556C0.857197 16.0128 0.471133 15.4495 0.241007 14.818C0.0108805 14.1866 -0.0558798 13.5073 0.0469128 12.8432C0.149717 12.1791 0.41874 11.5516 0.829072 11.0191C1.2394 10.4864 1.77777 10.0658 2.39426 9.79615C3.01076 9.52656 3.68545 9.41661 4.35581 9.47664L4.3362 9.45706C5.02227 9.51492 5.7127 9.42248 6.35932 9.18638C7.00595 8.95035 7.59318 8.5762 8.08003 8.09013C8.56688 7.60405 8.94156 7.01775 9.17804 6.37215C9.41451 5.72656 9.5071 5.03721 9.44915 4.35223L9.46876 4.37181C9.39186 3.55267 9.56995 2.72978 9.97874 2.01539C10.3874 1.30099 11.0069 0.729859 11.7527 0.379872C12.4984 0.0298857 13.3342 -0.0819333 14.1459 0.0596947C14.9576 0.201312 15.7059 0.58947 16.2886 1.17123C16.8712 1.75299 17.2601 2.50003 17.4019 3.31048C17.5437 4.12094 17.4317 4.95534 17.0812 5.69992C16.7306 6.4445 16.1586 7.063 15.4431 7.47108C14.7276 7.87916 13.9033 8.05696 13.0829 7.98021L13.1036 7.99979C12.4174 7.94162 11.7267 8.03374 11.0798 8.26969C10.4329 8.50562 9.84542 8.87972 9.35831 9.36582C8.87119 9.85194 8.49624 10.4383 8.25964 11.0841C8.02305 11.7299 7.9305 12.4195 7.98845 13.1046L7.96777 13.085C8.02454 13.6669 7.95195 14.2541 7.75519 14.8047ZM14.1298 18.453L14.1091 18.4334C14.6922 18.4921 15.281 18.4206 15.8331 18.2242C16.3852 18.0278 16.8867 17.7114 17.3012 17.2979C17.7157 16.8843 18.0331 16.3838 18.2302 15.8327C18.4273 15.2817 18.4993 14.6939 18.441 14.1116L18.4617 14.1312C18.4038 13.4462 18.4964 12.7569 18.7327 12.1112C18.9692 11.4657 19.344 10.8794 19.8308 10.3933C20.3177 9.90727 20.9049 9.53305 21.5515 9.29706C22.1982 9.06092 22.8886 8.96855 23.5747 9.02638L23.554 9.0068C24.3747 9.0838 25.1992 8.90605 25.915 8.49795C26.631 8.08985 27.2033 7.47119 27.554 6.72638C27.9048 5.98158 28.0169 5.14687 27.875 4.33611C27.7332 3.52535 27.3444 2.77803 26.7614 2.19605C26.1785 1.61408 25.43 1.22579 24.618 1.08418C23.8059 0.942549 22.9699 1.05447 22.2239 1.40467C21.4779 1.75486 20.8583 2.3263 20.4495 3.04103C20.0407 3.75575 19.8627 4.57898 19.9398 5.3984L19.9202 5.37774C19.9783 6.06276 19.8859 6.75218 19.6496 7.39787C19.4132 8.04355 19.0384 8.62993 18.5516 9.1161C18.0647 9.60211 17.4774 9.97633 16.8307 10.2123C16.1839 10.4483 15.4934 10.5405 14.8073 10.4826L14.8269 10.5032C14.2438 10.4446 13.6549 10.5161 13.1028 10.7125C12.5508 10.9088 12.0493 11.2252 11.6347 11.6388C11.2202 12.0524 10.9029 12.5529 10.7057 13.1039C10.5087 13.655 10.4367 14.2428 10.4949 14.825L10.4753 14.8055C10.5331 15.4904 10.4404 16.1797 10.2039 16.8252C9.96731 17.4707 9.5926 18.0569 9.10582 18.543C8.61899 19.029 8.03184 19.4031 7.3853 19.6393C6.73876 19.8754 6.04841 19.9679 5.36238 19.9103L5.38199 19.9299C4.56126 19.8529 3.73673 20.0306 3.02086 20.4387C2.30501 20.8469 1.73266 21.4655 1.38191 22.2103C1.03115 22.9552 0.919042 23.7898 1.0609 24.6006C1.20275 25.4113 1.59166 26.1587 2.17455 26.7406C2.75745 27.3226 3.50596 27.7109 4.31801 27.8525C5.13006 27.9941 5.96609 27.8822 6.71209 27.532C7.45807 27.1818 8.07771 26.6104 8.48647 25.8957C8.89526 25.1809 9.07325 24.3577 8.99613 23.5383L9.01682 23.5579C8.95888 22.8728 9.05146 22.1836 9.28794 21.5379C9.52431 20.8923 9.89912 20.3061 10.3859 19.8199C10.8728 19.3339 11.46 18.9597 12.1066 18.7237C12.7533 18.4876 13.4437 18.3952 14.1298 18.453ZM22.1652 12.7272C21.7524 13.1419 21.4363 13.6424 21.2393 14.1929C21.0424 14.7435 20.9695 15.3306 21.0258 15.9126L21.0062 15.893C21.0642 16.578 20.9716 17.2673 20.7351 17.913C20.4986 18.5585 20.1239 19.1448 19.6371 19.6309C19.1502 20.1169 18.563 20.4911 17.9163 20.7271C17.2698 20.9632 16.5793 21.0557 15.8933 20.9978L15.9129 21.0174C15.0922 20.9412 14.268 21.1194 13.5525 21.528C12.8371 21.9366 12.2652 22.5555 11.915 23.3004C11.5648 24.0454 11.4532 24.88 11.5954 25.6906C11.7378 26.5011 12.127 27.2481 12.71 27.8298C13.2931 28.4114 14.0417 28.7993 14.8536 28.9405C15.6656 29.0819 16.5014 28.9697 17.2472 28.6194C17.993 28.269 18.6124 27.6976 19.021 26.9829C19.4295 26.2682 19.6074 25.4451 19.5303 24.6258L19.551 24.6454C19.493 23.9605 19.5855 23.2711 19.822 22.6254C20.0585 21.9799 20.4333 21.3936 20.9201 20.9075C21.407 20.4214 21.9942 20.0472 22.6408 19.8112C23.2874 19.5751 23.9778 19.4827 24.6639 19.5405L24.6432 19.521C25.3136 19.5811 25.9884 19.4714 26.605 19.2019C27.2215 18.9324 27.76 18.5119 28.1704 17.9793C28.5809 17.4467 28.8501 16.8192 28.953 16.1552C29.0559 15.491 28.9892 14.8118 28.7592 14.1801C28.5291 13.5486 28.1431 12.9853 27.6369 12.5423C27.1308 12.0994 26.5208 11.7912 25.8635 11.6463C25.2063 11.5015 24.523 11.5245 23.8771 11.7134C23.2311 11.9024 22.6435 12.2511 22.1685 12.7272H22.1652ZM43.9138 4.98596H47.4778V22.3296H43.9138V4.98596ZM50.5451 12.8858C49.8563 13.9246 49.4913 15.1445 49.4962 16.3908C49.4901 17.2182 49.649 18.0385 49.9636 18.8038C50.2781 19.569 50.742 20.2639 51.3284 20.8478C51.9146 21.4316 52.6113 21.8928 53.3778 22.2043C54.1444 22.5158 54.9653 22.6715 55.7926 22.662C57.039 22.662 58.2573 22.292 59.2934 21.599C60.3293 20.9062 61.1363 19.9212 61.6121 18.7693C62.0879 17.6173 62.2112 16.35 61.9661 15.1279C61.7211 13.9058 61.1189 12.784 60.2358 11.9045C59.3528 11.0249 58.2285 10.4273 57.0054 10.1872C55.7824 9.94704 54.5157 10.0753 53.3656 10.5558C52.2155 11.0362 51.2339 11.8471 50.5451 12.8858ZM58.028 14.8931C58.3372 15.3326 58.5101 15.8536 58.525 16.3908C58.545 16.7585 58.4886 17.1263 58.3594 17.471C58.2303 17.8158 58.031 18.1301 57.7743 18.3941C57.5176 18.658 57.209 18.8658 56.8679 19.0045C56.5268 19.1432 56.1606 19.2098 55.7926 19.2C55.2552 19.2 54.7296 19.0416 54.2817 18.7446C53.8338 18.4476 53.4834 18.0252 53.2743 17.5301C53.0651 17.035 53.0067 16.4892 53.106 15.9611C53.2053 15.4328 53.4582 14.9456 53.8329 14.5604C54.2076 14.1751 54.6876 13.909 55.2129 13.795C55.7381 13.681 56.2852 13.7244 56.786 13.9198C57.2866 14.115 57.7186 14.4536 58.028 14.8931ZM76.2934 10.4508V21.7308C76.2934 25.722 73.1806 27.4092 70.021 27.4092C68.9086 27.4925 67.7946 27.2678 66.8014 26.7598C65.8083 26.2517 64.9742 25.48 64.3906 24.5292L67.4314 22.7712C67.6767 23.2668 68.0675 23.6757 68.5515 23.9432C69.0356 24.2105 69.5897 24.3238 70.1398 24.2676C70.4914 24.3164 70.8495 24.2854 71.1875 24.177C71.5254 24.0687 71.8348 23.8857 72.0926 23.6417C72.3503 23.3976 72.5499 23.0988 72.6766 22.7672C72.8032 22.4356 72.8536 22.0798 72.8242 21.726V20.64C72.4068 21.1506 71.8757 21.5564 71.2732 21.8246C70.6707 22.0928 70.0138 22.216 69.355 22.1844C67.7876 22.135 66.3009 21.4776 65.2096 20.3513C64.1183 19.2251 63.5081 17.7184 63.5081 16.1502C63.5081 14.5821 64.1183 13.0754 65.2096 11.9492C66.3009 10.8228 67.7876 10.1655 69.355 10.116C70.0138 10.0845 70.6707 10.2077 71.2732 10.4759C71.8757 10.7441 72.4068 11.1498 72.8242 11.6604V10.4484L76.2934 10.4508ZM72.8254 16.152C72.8494 15.5777 72.7008 15.0093 72.399 14.52C72.0972 14.0307 71.6559 13.643 71.1318 13.4067C70.6078 13.1703 70.0251 13.0962 69.4586 13.1939C68.892 13.2916 68.3678 13.5566 67.953 13.9548C67.5384 14.353 67.2525 14.8661 67.1319 15.4282C67.0114 15.9903 67.0618 16.5756 67.2768 17.1088C67.4918 17.642 67.8614 18.0987 68.338 18.42C68.8146 18.7414 69.3766 18.9128 69.9514 18.912C70.3259 18.9382 70.7016 18.8856 71.0546 18.7577C71.4075 18.6298 71.7297 18.4293 72.0004 18.1694C72.2711 17.9093 72.4845 17.5955 72.6266 17.248C72.7686 16.9006 72.8364 16.5273 72.8254 16.152ZM79.3607 12.8858C78.6718 13.9246 78.3069 15.1445 78.3118 16.3908C78.3057 17.2182 78.4646 18.0385 78.7792 18.8038C79.0937 19.569 79.5576 20.2639 80.144 20.8478C80.7302 21.4316 81.4269 21.8928 82.1935 22.2043C82.9599 22.5158 83.7809 22.6715 84.6082 22.662C85.8546 22.662 87.0729 22.292 88.109 21.599C89.1449 20.9062 89.9519 19.9212 90.4277 18.7693C90.9035 17.6173 91.0268 16.35 90.7817 15.1279C90.5367 13.9058 89.9345 12.784 89.0515 11.9045C88.1684 11.0249 87.0441 10.4273 85.8211 10.1872C84.598 9.94704 83.3313 10.0753 82.1812 10.5558C81.0311 11.0362 80.0495 11.8471 79.3607 12.8858ZM86.8436 14.8931C87.1528 15.3326 87.3257 15.8536 87.3406 16.3908C87.3606 16.7585 87.3042 17.1263 87.175 17.471C87.0459 17.8158 86.8466 18.1301 86.5899 18.3941C86.3332 18.658 86.0246 18.8658 85.6834 19.0045C85.3424 19.1432 84.9762 19.2098 84.6082 19.2C84.0707 19.2 83.5453 19.0416 83.0973 18.7446C82.6495 18.4476 82.2991 18.0252 82.0899 17.5301C81.8807 17.035 81.8222 16.4892 81.9215 15.9611C82.0209 15.4328 82.2739 14.9456 82.6485 14.5604C83.0233 14.1751 83.5033 13.909 84.0285 13.795C84.5536 13.681 85.1008 13.7244 85.6016 13.9198C86.1022 14.115 86.5342 14.4536 86.8436 14.8931ZM92.5666 7.26719C92.5666 6.84425 92.692 6.43081 92.9269 6.07916C93.1619 5.7275 93.496 5.45341 93.8867 5.29157C94.2774 5.12971 94.7074 5.08736 95.1222 5.16987C95.5369 5.25239 95.9181 5.45605 96.2171 5.75511C96.5162 6.05417 96.7198 6.43519 96.8024 6.85001C96.8848 7.26481 96.8424 7.69477 96.6807 8.08551C96.5188 8.47626 96.2447 8.81023 95.893 9.04523C95.5414 9.28019 95.128 9.40559 94.705 9.40559C94.1397 9.39995 93.5989 9.17291 93.1991 8.77304C92.7994 8.37323 92.5722 7.83258 92.5666 7.26719ZM92.9266 10.4508H96.4918V22.3308H92.9218L92.9266 10.4508ZM111.544 18.7023C111.807 17.9615 111.922 17.176 111.881 16.3908C111.922 15.6056 111.808 14.8198 111.545 14.0789C111.281 13.3379 110.874 12.6563 110.346 12.0734C109.818 11.4904 109.181 11.0176 108.469 10.6821C107.758 10.3466 106.988 10.155 106.202 10.1184C105.542 10.0824 104.882 10.1937 104.27 10.4442C103.658 10.6947 103.109 11.0782 102.663 11.5668V10.4508H99.0994V27.0816H102.663V21.2124C103.109 21.7014 103.657 22.0852 104.269 22.336C104.882 22.5867 105.542 22.698 106.202 22.662C106.988 22.6253 107.758 22.4337 108.469 22.0983C109.18 21.7628 109.818 21.29 110.345 20.7072C110.873 20.1244 111.28 19.443 111.544 18.7023ZM107.806 14.8397C108.125 15.2954 108.303 15.8349 108.317 16.3908C108.343 16.7721 108.289 17.1548 108.157 17.5136C108.026 17.8724 107.82 18.1992 107.553 18.473C107.286 18.7466 106.964 18.9608 106.609 19.1013C106.254 19.2419 105.872 19.3059 105.491 19.2888C104.934 19.289 104.391 19.1249 103.927 18.8175C103.464 18.5099 103.101 18.0726 102.885 17.5601C102.669 17.0476 102.609 16.4829 102.712 15.9364C102.816 15.3898 103.078 14.886 103.466 14.4878C103.854 14.0896 104.352 13.8148 104.895 13.6978C105.439 13.5807 106.005 13.6266 106.523 13.8298C107.041 14.0328 107.487 14.3842 107.806 14.8397ZM122.879 18.7656C122.879 21.498 120.504 22.662 117.938 22.662C116.901 22.7559 115.861 22.5368 114.95 22.0326C114.039 21.5286 113.301 20.763 112.83 19.8348L115.917 18.0768C116.042 18.5058 116.311 18.8792 116.678 19.1342C117.044 19.3893 117.488 19.5108 117.933 19.4784C118.788 19.4784 119.216 19.2168 119.216 18.7428C119.216 18.2711 118.456 18.0592 117.484 17.7884C115.76 17.3082 113.371 16.6425 113.371 14.0148C113.371 11.424 115.557 10.1184 118.028 10.1184C118.957 10.089 119.876 10.3094 120.691 10.7564C121.506 11.2035 122.186 11.8608 122.66 12.66L119.619 14.2992C119.486 13.9881 119.264 13.723 118.981 13.5371C118.698 13.3512 118.367 13.2528 118.028 13.254C117.41 13.254 117.03 13.494 117.03 13.9188C117.032 14.4023 117.777 14.5982 118.735 14.8499C120.462 15.3036 122.879 15.9387 122.879 18.7656ZM135.897 22.3308V10.4508L132.337 10.4544V16.9344C132.337 18.6216 131.435 19.3812 130.128 19.3812C129.843 19.3985 129.559 19.3536 129.295 19.2498C129.03 19.146 128.791 18.9858 128.594 18.7802C128.397 18.5747 128.247 18.3287 128.156 18.0594C128.064 17.7902 128.031 17.5042 128.061 17.2212V10.4508H124.497V17.7432C124.497 20.9532 126.537 22.6632 128.937 22.6632C129.578 22.7074 130.219 22.599 130.809 22.347C131.4 22.095 131.922 21.7066 132.333 21.2136V22.3308H135.897ZM156.333 15.036V22.3296H152.769V15.3444C152.769 14.1564 152.199 13.3968 151.059 13.3968C149.871 13.3968 149.205 14.2284 149.205 15.63V22.3296H145.643V15.3444C145.643 14.1564 145.073 13.3968 143.931 13.3968C142.743 13.3968 142.079 14.2284 142.079 15.63V22.3296H138.515V10.4496H142.079V11.5416C142.448 11.0571 142.933 10.6729 143.489 10.4241C144.045 10.1752 144.655 10.0698 145.262 10.1172C145.872 10.0873 146.479 10.216 147.025 10.4907C147.57 10.7653 148.034 11.1766 148.374 11.6844C148.769 11.1531 149.292 10.7307 149.894 10.4566C150.497 10.1826 151.159 10.0658 151.819 10.1172C154.547 10.1184 156.333 12.066 156.333 15.036ZM161.993 7.73281C161.993 9.19345 160.808 10.3776 159.348 10.3776C157.887 10.3776 156.703 9.19345 156.703 7.73281C156.703 6.27213 157.887 5.08801 159.348 5.08801C160.808 5.08801 161.993 6.27213 161.993 7.73281Z" fill="#626981"/>
</svg>
