<svg width="155" height="32" viewBox="0 0 155 32" fill="none" xmlns="http://www.w3.org/2000/svg">
<path fill-rule="evenodd" clip-rule="evenodd" d="M16.5 0C7.3873 0 0 7.16344 0 16C9.1127 16 16.5 8.83656 16.5 0ZM16.5 32C7.3873 32 0 24.8366 0 16C9.1127 16 16.5 23.1634 16.5 32ZM33 16C23.8873 16 16.5 8.83656 16.5 0C25.6127 0 33 7.16344 33 16ZM33 16C23.8873 16 16.5 23.1634 16.5 32C25.6127 32 33 24.8366 33 16ZM94.2499 10.0109H97.3657V7.26184H94.2499V10.0109ZM94.2499 24.1H97.3657V11.7291H94.2499V24.1ZM54.5501 24.1H44.3327V7.60547H47.4483V21.1906H54.5501V24.1ZM63.9547 23.6188C63.0154 24.1686 61.9272 24.4436 60.6901 24.4436C59.4454 24.4436 58.3534 24.1648 57.4141 23.6074C56.4749 23.0499 55.7417 22.2825 55.2149 21.305C54.6956 20.3199 54.4359 19.1897 54.4359 17.9145C54.4359 16.6239 54.7032 15.4899 55.2377 14.5125C55.7723 13.5274 56.5092 12.7599 57.4485 12.2101C58.3877 11.6603 59.4683 11.3854 60.6901 11.3854C61.9349 11.3854 63.0269 11.6641 63.9661 12.2216C64.913 12.779 65.6499 13.5503 66.1769 14.5354C66.7037 15.5129 66.9672 16.6392 66.9672 17.9145C66.9672 19.1974 66.6999 20.3314 66.1654 21.3165C65.6385 22.2939 64.9016 23.0613 63.9547 23.6188ZM58.4794 20.5605C58.9834 21.2096 59.7203 21.5341 60.6901 21.5341C61.6905 21.5341 62.435 21.1981 62.9237 20.5261C63.4202 19.8465 63.6683 18.976 63.6683 17.9145C63.6683 16.8148 63.4163 15.9367 62.9123 15.2799C62.4159 14.6232 61.6752 14.2948 60.6901 14.2948C59.6745 14.2948 58.9261 14.6309 58.445 15.3028C57.9716 15.9672 57.7349 16.8378 57.7349 17.9145C57.7349 19.0218 57.983 19.9038 58.4794 20.5605ZM73.1287 24.4436C73.7091 24.4436 74.2436 24.3748 74.7324 24.2374C75.2287 24.0999 75.6793 23.9052 76.084 23.6532V24.9018C76.0993 25.3599 75.9809 25.7417 75.7289 26.0472C75.4845 26.3603 75.1562 26.5932 74.7438 26.7459C74.3314 26.9063 73.8923 26.9865 73.4266 26.9865C72.9912 26.9865 72.5865 26.891 72.2124 26.7001C71.8458 26.5092 71.5632 26.2305 71.3647 25.8639L68.4782 27.2614C68.9516 28.0632 69.6274 28.7085 70.5056 29.1972C71.3838 29.6935 72.3498 29.9418 73.4036 29.9418C74.3123 29.9418 75.1562 29.8195 75.935 29.5752C76.714 29.3385 77.3707 28.9758 77.9052 28.487C78.4474 27.9983 78.8178 27.3759 79.0164 26.6199C79.085 26.3526 79.1309 26.0816 79.1538 25.8066C79.1843 25.5394 79.1996 25.253 79.1996 24.9476V11.729H76.4734V12.4163C76.0534 12.0879 75.5761 11.8359 75.0416 11.6603C74.5147 11.477 73.9306 11.3854 73.289 11.3854C72.1055 11.3854 71.0745 11.668 70.1964 12.233C69.3182 12.7981 68.6347 13.5732 68.146 14.5583C67.6649 15.5357 67.4244 16.6545 67.4244 17.9145C67.4244 19.1516 67.6611 20.2626 68.1346 21.2478C68.6156 22.2328 69.2838 23.0118 70.139 23.5845C70.9943 24.1572 71.9909 24.4436 73.1287 24.4436ZM73.6327 21.6716C72.9607 21.6716 72.4109 21.5035 71.9832 21.1676C71.5556 20.8316 71.2387 20.3811 71.0326 19.8159C70.8264 19.2432 70.7232 18.6094 70.7232 17.9145C70.7232 17.2272 70.8302 16.6011 71.044 16.0359C71.2578 15.4632 71.5862 15.0089 72.029 14.6728C72.4796 14.3292 73.0523 14.1574 73.7472 14.1574C74.7247 14.1574 75.4234 14.5049 75.8434 15.1998C76.2635 15.887 76.4734 16.7919 76.4734 17.9145C76.4734 19.037 76.2596 19.9457 75.832 20.6406C75.412 21.3279 74.6789 21.6716 73.6327 21.6716ZM89.8643 23.6188C88.9251 24.1686 87.8369 24.4436 86.5998 24.4436C85.3551 24.4436 84.2631 24.1648 83.3238 23.6074C82.3845 23.0499 81.6514 22.2825 81.1245 21.305C80.6052 20.3199 80.3456 19.1897 80.3456 17.9145C80.3456 16.6239 80.6129 15.4899 81.1474 14.5125C81.682 13.5274 82.4189 12.7599 83.3582 12.2101C84.2974 11.6603 85.3779 11.3854 86.5998 11.3854C87.8445 11.3854 88.9365 11.6641 89.8758 12.2216C90.8228 12.779 91.5599 13.5503 92.0864 14.5354C92.6138 15.5129 92.8765 16.6392 92.8765 17.9145C92.8765 19.1974 92.6093 20.3314 92.0747 21.3165C91.5482 22.2939 90.8111 23.0613 89.8643 23.6188ZM84.389 20.5605C84.893 21.2096 85.6299 21.5341 86.5998 21.5341C87.6001 21.5341 88.3447 21.1981 88.8334 20.5261C89.3297 19.8465 89.578 18.976 89.578 17.9145C89.578 16.8148 89.326 15.9367 88.822 15.2799C88.3256 14.6232 87.5849 14.2948 86.5998 14.2948C85.5841 14.2948 84.8358 14.6309 84.3547 15.3028C83.8812 15.9672 83.6445 16.8378 83.6445 17.9145C83.6445 19.0218 83.8927 19.9038 84.389 20.5605ZM102.541 29.5981H99.4025V11.729H102.152V12.4163C102.571 12.0879 103.045 11.8359 103.572 11.6603C104.107 11.477 104.694 11.3854 105.336 11.3854C106.52 11.3854 107.55 11.668 108.429 12.233C109.307 12.7981 109.986 13.5732 110.468 14.5583C110.957 15.5357 111.201 16.6545 111.201 17.9145C111.201 19.1516 110.96 20.2626 110.479 21.2478C110.005 22.2328 109.341 23.0118 108.486 23.5845C107.631 24.1572 106.634 24.4436 105.496 24.4436C104.916 24.4436 104.378 24.3748 103.881 24.2374C103.392 24.0999 102.946 23.9052 102.541 23.6532V29.5981ZM102.793 20.6406C103.221 21.3279 103.954 21.6716 104.992 21.6716C105.665 21.6716 106.215 21.5035 106.642 21.1676C107.07 20.8316 107.386 20.3811 107.592 19.8159C107.799 19.2432 107.902 18.6094 107.902 17.9145C107.902 17.2272 107.795 16.6011 107.581 16.0359C107.367 15.4632 107.035 15.0089 106.584 14.6728C106.142 14.3292 105.573 14.1574 104.878 14.1574C103.908 14.1574 103.209 14.5049 102.782 15.1998C102.362 15.887 102.152 16.7919 102.152 17.9145C102.152 19.037 102.365 19.9457 102.793 20.6406ZM116.845 24.4436C118.464 24.4436 119.732 24.0809 120.648 23.3554C121.564 22.6299 122.022 21.6334 122.022 20.3658C122.022 19.4036 121.724 18.6438 121.129 18.0863C120.541 17.5289 119.541 17.0668 118.128 16.7003C117.166 16.4559 116.448 16.2573 115.974 16.1046C115.509 15.952 115.199 15.803 115.046 15.6579C114.901 15.5129 114.829 15.3334 114.829 15.1196C114.829 14.7606 115 14.4858 115.344 14.2948C115.696 14.1039 116.158 14.0276 116.73 14.0658C117.944 14.1574 118.609 14.6767 118.724 15.6236L121.908 15.0508C121.748 13.9283 121.198 13.0387 120.258 12.3819C119.319 11.7176 118.121 11.3854 116.662 11.3854C115.165 11.3854 113.97 11.7366 113.076 12.4392C112.183 13.1417 111.736 14.0886 111.736 15.2799C111.736 16.2268 112.046 16.9752 112.664 17.525C113.282 18.0672 114.348 18.533 115.86 18.9225C116.754 19.1592 117.41 19.3501 117.83 19.4952C118.257 19.6403 118.533 19.7892 118.654 19.9419C118.777 20.087 118.838 20.2818 118.838 20.5261C118.838 20.9156 118.685 21.221 118.38 21.4425C118.075 21.6563 117.639 21.7632 117.074 21.7632C116.386 21.7632 115.818 21.599 115.368 21.2706C114.925 20.9423 114.638 20.488 114.508 19.9076L111.324 20.3886C111.53 21.6792 112.11 22.6796 113.065 23.3898C114.027 24.0923 115.287 24.4436 116.845 24.4436ZM130.107 24.0198C129.442 24.3176 128.663 24.4665 127.77 24.4665C126.8 24.4665 126.009 24.3023 125.399 23.974C124.788 23.6455 124.311 23.2294 123.967 22.7254C123.63 22.2214 123.39 21.6983 123.245 21.1561C123.1 20.6063 123.012 20.1061 122.982 19.6556C122.951 19.205 122.936 18.8766 122.936 18.6705V11.729H126.097V17.5708C126.097 17.8534 126.113 18.2161 126.143 18.659C126.174 19.0943 126.269 19.5334 126.429 19.9763C126.59 20.4192 126.85 20.7896 127.209 21.0874C127.575 21.3852 128.091 21.5341 128.755 21.5341C129.022 21.5341 129.309 21.4921 129.614 21.4081C129.92 21.3241 130.206 21.1638 130.473 20.927C130.74 20.6827 130.958 20.3276 131.126 19.8618C131.301 19.3883 131.389 18.7698 131.389 18.0061V11.729H134.528V24.1H131.779V22.8285C131.328 23.3249 130.771 23.722 130.107 24.0198ZM136.332 24.1H139.47V16.6087C139.47 15.8986 139.665 15.3221 140.055 14.8791C140.451 14.4285 140.974 14.2033 141.624 14.2033C142.304 14.2033 142.835 14.4324 143.216 14.8906C143.605 15.3411 143.8 15.9749 143.8 16.792V24.1H146.916V16.6087C146.916 15.8986 147.111 15.3221 147.5 14.8791C147.897 14.4285 148.42 14.2033 149.069 14.2033C149.749 14.2033 150.279 14.4324 150.661 14.8906C151.051 15.3411 151.246 15.9749 151.246 16.792V24.1H154.361V15.9673C154.361 14.6157 153.998 13.5237 153.273 12.6913C152.556 11.8513 151.49 11.4313 150.077 11.4313C149.283 11.4313 148.554 11.6031 147.889 11.9467C147.225 12.2904 146.695 12.76 146.297 13.3557C145.977 12.7753 145.518 12.3095 144.923 11.9582C144.327 11.607 143.586 11.4313 142.701 11.4313C141.952 11.4313 141.265 11.5802 140.639 11.878C140.012 12.1682 139.493 12.5691 139.081 13.0807V11.7291H136.332V24.1Z" fill="#626981"/>
</svg>
